<svg width="52" height="52" viewBox="0 0 52 52" fill="none" xmlns="http://www.w3.org/2000/svg">
<rect width="52" height="52" rx="26" fill="#E4F1FA"/>
<path d="M16.0158 27.4756C16.0811 30.5411 16.1138 32.0739 17.245 33.2093C18.3761 34.3448 19.9503 34.3843 23.0988 34.4634C25.0393 34.5122 26.9607 34.5122 28.9012 34.4634C32.0497 34.3843 33.6239 34.3448 34.755 33.2093C35.8862 32.0739 35.9189 30.5411 35.9842 27.4756C36.0053 26.4899 36.0053 25.51 35.9842 24.5244C35.9189 21.4589 35.8862 19.9261 34.755 18.7907C33.6239 17.6552 32.0497 17.6157 28.9012 17.5366C26.9607 17.4878 25.0393 17.4878 23.0988 17.5366C19.9503 17.6157 18.3761 17.6552 17.245 18.7907C16.1138 19.9261 16.0811 21.4589 16.0158 24.5243C15.9947 25.51 15.9947 26.4899 16.0158 27.4756Z" stroke="#4A90D8" stroke-width="1.5" stroke-linejoin="round"/>
<path d="M21 22.5L23.942 24.2394C25.6572 25.2535 26.3428 25.2535 28.058 24.2394L31 22.5" stroke="#4A90D8" stroke-width="1.5" stroke-linecap="round" stroke-linejoin="round"/>
</svg>
