<svg width="52" height="52" viewBox="0 0 52 52" fill="none" xmlns="http://www.w3.org/2000/svg">
<rect width="52" height="52" rx="26" fill="#E4F1FA"/>
<path d="M27.6177 35.367C27.1841 35.773 26.6044 36 26.0011 36C25.3978 36 24.8182 35.773 24.3845 35.367C20.413 31.626 15.0908 27.4469 17.6863 21.3797C19.0896 18.0992 22.4583 16 26.0011 16C29.5439 16 32.9126 18.0992 34.316 21.3797C36.9082 27.4393 31.599 31.6389 27.6177 35.367Z" stroke="#4A90D8" stroke-width="1.5"/>
<path d="M29.5 25C29.5 26.933 27.933 28.5 26 28.5C24.067 28.5 22.5 26.933 22.5 25C22.5 23.067 24.067 21.5 26 21.5C27.933 21.5 29.5 23.067 29.5 25Z" stroke="#4A90D8" stroke-width="1.5"/>
</svg>
