<svg width="657" height="265" viewBox="0 0 657 265" fill="none" xmlns="http://www.w3.org/2000/svg">
<path d="M197.837 151.113C200.293 151.113 201.522 160.45 201.522 179.124C201.522 197.552 200.293 206.766 197.837 206.766L173.522 207.135V253.574C173.522 256.277 168.487 258.243 158.417 259.471C148.347 260.7 139.628 261.314 132.26 261.314L117.155 260.577C104.629 259.594 98.3661 257.383 98.3661 253.943V208.241H25.052C18.6662 201.852 12.8944 193.621 7.73666 183.547C2.57889 173.227 0 165.855 0 161.433C0 156.764 0.736825 153.078 2.21047 150.376L82.8928 7.37136C83.8752 5.40567 91.3662 3.93139 105.366 2.94855C119.611 1.9657 134.47 1.47427 149.944 1.47427C165.417 1.47427 173.154 2.08855 173.154 3.31711L173.522 151.113H197.837ZM109.05 151.481V74.4506L65.9458 151.481H109.05Z" fill="#4A90E2"/>
<path d="M334.023 265C303.322 265 278.147 253.697 258.499 231.092C239.096 208.486 229.394 175.438 229.394 131.947C229.394 88.4562 239.219 55.6537 258.867 33.5396C278.516 11.1799 303.813 0 334.76 0C365.952 0 391.127 11.057 410.285 33.1711C429.442 55.2851 439.021 88.579 439.021 133.053C439.021 177.527 429.196 210.698 409.548 232.566C390.145 254.189 364.97 265 334.023 265ZM334.023 70.765C324.69 70.765 316.708 76.1706 310.077 86.9819C303.691 97.5475 300.498 112.659 300.498 132.316C300.498 151.973 303.568 167.084 309.708 177.65C316.094 187.969 324.199 193.129 334.023 193.129C344.093 193.129 352.198 187.847 358.339 177.281C364.724 166.715 367.917 151.604 367.917 131.947C367.917 112.29 364.602 97.179 357.97 86.6133C351.584 76.0478 343.602 70.765 334.023 70.765Z" fill="#4A90E2"/>
<path d="M653.316 151.113C655.772 151.113 657 160.45 657 179.124C657 197.552 655.772 206.766 653.316 206.766L629.001 207.135V253.574C629.001 256.277 623.966 258.243 613.896 259.471C603.826 260.7 595.107 261.314 587.738 261.314L572.634 260.577C560.108 259.594 553.845 257.383 553.845 253.943V208.241H480.531C474.145 201.852 468.373 193.621 463.215 183.547C458.057 173.227 455.478 165.855 455.478 161.433C455.478 156.764 456.215 153.078 457.689 150.376L538.371 7.37136C539.354 5.40567 546.845 3.93139 560.844 2.94855C575.09 1.9657 589.949 1.47427 605.422 1.47427C620.896 1.47427 628.632 2.08855 628.632 3.31711L629.001 151.113H653.316ZM564.529 151.481V74.4506L521.424 151.481H564.529Z" fill="#4A90E2"/>
</svg>
