<svg width="55" height="52" viewBox="0 0 55 52" fill="none" xmlns="http://www.w3.org/2000/svg">
<path d="M43.8192 51.9851C40.465 51.9851 37.4763 50.3829 34.8316 47.1568C32.1869 43.9524 30.8753 39.7087 30.8753 34.4258C30.8753 29.9439 33.2835 23.0804 38.0783 13.8569C42.8947 4.61174 46.4639 7.42687e-07 48.8076 8.54346e-07C50.1192 9.16834e-07 50.7857 0.692841 50.7857 2.05688C50.7857 2.42496 49.4096 5.41288 46.6789 11.0423C43.9267 16.6716 42.5721 21.0885 42.5721 24.2496C42.5721 26.6962 44.1202 28.7098 47.2379 30.2687C50.3342 31.8276 52.4198 33.4515 53.4519 35.1403C54.4839 36.8291 55 38.6695 55 40.6181C55 44.1473 53.9679 46.9403 51.9038 48.9539C49.7751 50.9675 47.1089 51.9851 43.8192 51.9851Z" fill="#BEDCF3"/>
<path d="M12.9439 51.9851C9.58968 51.9851 6.57948 50.3829 3.95631 47.1568C1.31164 43.9524 5.65617e-05 39.7087 5.71569e-05 34.4258C5.76618e-05 29.9439 2.40821 23.0804 7.20303 13.8569C11.9979 4.61174 15.5886 7.43643e-07 17.9107 8.54421e-07C19.2223 9.16989e-07 19.8889 0.692841 19.8889 2.05688C19.8889 2.42496 18.5128 5.41288 15.7821 11.0423C13.0299 16.6716 11.6753 21.0885 11.6753 24.2496C11.6753 26.6962 13.2234 28.7098 16.3411 30.2687C19.4373 31.8276 21.523 33.4515 22.555 35.1403C23.5871 36.8291 24.1032 38.6695 24.1032 40.6181C24.1032 44.1473 23.0711 46.9403 21.0069 48.9539C18.9428 50.9675 16.2336 51.9851 12.9439 51.9851Z" fill="#BEDCF3"/>
</svg>
