<svg width="96" height="96" viewBox="0 0 96 96" fill="none" xmlns="http://www.w3.org/2000/svg">
<mask id="mask0_5533_49899" style="mask-type:luminance" maskUnits="userSpaceOnUse" x="0" y="0" width="96" height="96">
<path d="M0 7.62939e-06H96V96H0V7.62939e-06Z" fill="white"/>
</mask>
<g mask="url(#mask0_5533_49899)">
<path d="M58.5209 26.9593C58.5209 32.7699 53.8103 37.4805 47.9997 37.4805C42.1891 37.4805 37.4785 32.7699 37.4785 26.9593C37.4785 21.1487 42.1891 16.4381 47.9997 16.4381C53.8103 16.4381 58.5209 21.1487 58.5209 26.9593Z" stroke="#3F73B8" stroke-width="3" stroke-miterlimit="10" stroke-linecap="round" stroke-linejoin="round"/>
<path d="M60.0919 43.8894C59.0882 43.6248 58.0039 43.7525 57.0864 44.2376C54.3716 45.6735 51.2854 46.4979 48.0004 46.4979C44.7154 46.4979 41.6291 45.6735 38.9143 44.2376C37.9967 43.7525 36.9124 43.6248 35.9087 43.8894C30.7569 45.2475 26.958 49.9376 26.958 55.5159V73.5523C26.958 76.8727 29.6498 79.5645 32.9702 79.5645H63.0306C66.351 79.5645 69.0426 76.8727 69.0426 73.5523V55.5159C69.0426 49.9376 65.2438 45.2475 60.0919 43.8894Z" stroke="#3F73B8" stroke-width="3" stroke-miterlimit="10" stroke-linecap="round" stroke-linejoin="round"/>
<path d="M84.0724 35.977C84.0724 40.1275 80.7077 43.4922 76.5572 43.4922C72.4067 43.4922 69.042 40.1275 69.042 35.977C69.042 31.8265 72.4067 28.4618 76.5572 28.4618C80.7077 28.4618 84.0724 31.8265 84.0724 35.977Z" stroke="#3F73B8" stroke-width="3" stroke-miterlimit="10" stroke-linecap="round" stroke-linejoin="round"/>
<path d="M75.0547 73.5527H90.0849C92.5752 73.5527 94.5939 71.5339 94.5939 69.0437V61.5285C94.5941 55.6889 90.428 50.8332 84.9072 49.746C83.9026 49.5482 82.8513 49.6484 81.8951 50.0151C80.2364 50.6509 78.4404 51.0074 76.5577 51.0074C76.0501 51.0074 75.5489 50.9811 75.0547 50.9309" stroke="#3F73B8" stroke-width="3" stroke-miterlimit="10" stroke-linecap="round" stroke-linejoin="round"/>
<path d="M11.9277 35.977C11.9277 40.1275 15.2924 43.4922 19.4429 43.4922C23.5934 43.4922 26.9581 40.1275 26.9581 35.977C26.9581 31.8265 23.5934 28.4618 19.4429 28.4618C15.2924 28.4618 11.9277 31.8265 11.9277 35.977Z" stroke="#3F73B8" stroke-width="3" stroke-miterlimit="10" stroke-linecap="round" stroke-linejoin="round"/>
<path d="M20.9454 73.5527H5.91525C3.42487 73.5527 1.40625 71.5339 1.40625 69.0437V61.5285C1.40606 55.6889 5.57212 50.8332 11.0929 49.746C12.0975 49.5482 13.1488 49.6484 14.1051 50.0151C15.7637 50.6509 17.5597 51.0074 19.4424 51.0074C19.95 51.0074 20.4512 50.9811 20.9454 50.9309" stroke="#3F73B8" stroke-width="3" stroke-miterlimit="10" stroke-linecap="round" stroke-linejoin="round"/>
</g>
</svg>
