<svg width="96" height="96" viewBox="0 0 96 96" fill="none" xmlns="http://www.w3.org/2000/svg">
<mask id="mask0_5533_41533" style="mask-type:luminance" maskUnits="userSpaceOnUse" x="6" y="6" width="84" height="84">
<path d="M6 6.00001H90V90H6V6.00001Z" fill="white"/>
</mask>
<g mask="url(#mask0_5533_41533)">
<path d="M75.2348 32.5781H8.16699" stroke="#3F73B8" stroke-width="3" stroke-miterlimit="10" stroke-linecap="round" stroke-linejoin="round"/>
</g>
<mask id="mask1_5533_41533" style="mask-type:luminance" maskUnits="userSpaceOnUse" x="6" y="6" width="84" height="84">
<path d="M6 6.00001H90V90H6V6.00001Z" fill="white"/>
</mask>
<g mask="url(#mask1_5533_41533)">
<path d="M31.6758 80.4297H7.64062" stroke="#3F73B8" stroke-width="3" stroke-miterlimit="10" stroke-linecap="round" stroke-linejoin="round"/>
</g>
<path d="M38.2385 80.4297H38.2139" stroke="#3F73B8" stroke-width="3" stroke-miterlimit="10" stroke-linecap="round" stroke-linejoin="round"/>
<mask id="mask2_5533_41533" style="mask-type:luminance" maskUnits="userSpaceOnUse" x="6" y="6" width="84" height="84">
<path d="M6 6.00001H90V90H6V6.00001Z" fill="white"/>
</mask>
<g mask="url(#mask2_5533_41533)">
<path d="M88.3594 71.8867V17.4851C88.3594 15.6728 86.8904 14.2038 85.0782 14.2038H78.5703" stroke="#3F73B8" stroke-width="3" stroke-miterlimit="10" stroke-linecap="round" stroke-linejoin="round"/>
<path d="M17.539 14.2031H10.9219C9.1098 14.2031 7.64062 15.6721 7.64062 17.4844V85.0781C7.64062 86.8904 9.1098 88.3594 10.9219 88.3594H71.886" stroke="#3F73B8" stroke-width="3" stroke-miterlimit="10" stroke-linecap="round" stroke-linejoin="round"/>
<path d="M71.8857 75.1673V88.3594L88.3591 71.886H75.167C73.3548 71.886 71.8857 73.355 71.8857 75.1673Z" stroke="#3F73B8" stroke-width="3" stroke-miterlimit="10" stroke-linecap="round" stroke-linejoin="round"/>
<path d="M43.1327 14.2031H26.2891" stroke="#3F73B8" stroke-width="3" stroke-miterlimit="10" stroke-linecap="round" stroke-linejoin="round"/>
<path d="M69.0001 14.2031H52.4844" stroke="#3F73B8" stroke-width="3" stroke-miterlimit="10" stroke-linecap="round" stroke-linejoin="round"/>
<path d="M26.0156 13.7109V11.5781C26.0156 9.40364 24.2528 7.64063 22.0781 7.64063C19.9035 7.64063 18.1406 9.40364 18.1406 11.5781V19.6172C18.1406 21.7918 19.9035 23.5547 22.0781 23.5547C24.2528 23.5547 26.0156 21.7918 26.0156 19.6172V13.7109Z" stroke="#3F73B8" stroke-width="3" stroke-miterlimit="10" stroke-linecap="round" stroke-linejoin="round"/>
<path d="M51.917 13.7109V11.5781C51.917 9.40364 50.1541 7.64063 47.9795 7.64063C45.8048 7.64063 44.042 9.40364 44.042 11.5781V19.6172C44.042 21.7918 45.8048 23.5547 47.9795 23.5547C50.1541 23.5547 51.917 21.7918 51.917 19.6172V13.7109Z" stroke="#3F73B8" stroke-width="3" stroke-miterlimit="10" stroke-linecap="round" stroke-linejoin="round"/>
<path d="M77.8174 13.7109V11.5781C77.8174 9.40364 76.0545 7.64063 73.8799 7.64063C71.7052 7.64063 69.9424 9.40364 69.9424 11.5781V19.6172C69.9424 21.7918 71.7052 23.5547 73.8799 23.5547C76.0545 23.5547 77.8174 21.7918 77.8174 19.6172V13.7109Z" stroke="#3F73B8" stroke-width="3" stroke-miterlimit="10" stroke-linecap="round" stroke-linejoin="round"/>
<path d="M27.8633 57.8438H36.5258V52.1816C36.5258 51.3219 35.8288 50.625 34.9693 50.625H27.8633" stroke="#3F73B8" stroke-width="3" stroke-miterlimit="10" stroke-linecap="round" stroke-linejoin="round"/>
<path d="M27.8633 65.0625H34.9693C35.8288 65.0625 36.5258 64.3656 36.5258 63.5059V57.8438H27.8633" stroke="#3F73B8" stroke-width="3" stroke-miterlimit="10" stroke-linecap="round" stroke-linejoin="round"/>
<path d="M52.4066 50.625H45.3008C44.4411 50.625 43.7441 51.3219 43.7441 52.1816V57.8438H48.4363" stroke="#3F73B8" stroke-width="3" stroke-miterlimit="10" stroke-linecap="round" stroke-linejoin="round"/>
<path d="M45.3008 65.0625H50.8502C51.7099 65.0625 52.4068 64.3656 52.4068 63.5059V59.4004C52.4068 58.5407 51.7099 57.8438 50.8502 57.8438H43.7441V63.5059C43.7441 64.3656 44.4411 65.0625 45.3008 65.0625Z" stroke="#3F73B8" stroke-width="3" stroke-miterlimit="10" stroke-linecap="round" stroke-linejoin="round"/>
<path d="M68.2885 50.625H61.1824C60.3229 50.625 59.626 51.3219 59.626 52.1816V56.2871C59.626 57.1468 60.3229 57.8438 61.1824 57.8438H63.9572" stroke="#3F73B8" stroke-width="3" stroke-miterlimit="10" stroke-linecap="round" stroke-linejoin="round"/>
<path d="M59.626 65.0625H66.732C67.5915 65.0625 68.2885 64.3656 68.2885 63.5059V59.4004C68.2885 58.5407 67.5915 57.8438 66.732 57.8438H63.9572" stroke="#3F73B8" stroke-width="3" stroke-miterlimit="10" stroke-linecap="round" stroke-linejoin="round"/>
</g>
</svg>
