<svg width="24" height="24" viewBox="0 0 24 24" fill="none" xmlns="http://www.w3.org/2000/svg">
<path d="M21.8438 10.5938C21.8438 5.15719 17.4365 0.703127 12 0.703127C6.56348 0.703127 2.15625 5.15719 2.15625 10.5938C2.15625 15.3401 5.51592 19.3006 9.98658 20.2299L12 23.2969L14.0134 20.2299C18.4841 19.3006 21.8438 15.3401 21.8438 10.5938Z" stroke="#686FC8" stroke-width="1.4" stroke-miterlimit="10" stroke-linecap="round" stroke-linejoin="round"/>
<path d="M13.4062 16.2188C13.4062 16.9954 12.7766 17.625 12 17.625C11.2234 17.625 10.5938 16.9954 10.5938 16.2188C10.5938 15.4421 11.2234 14.8125 12 14.8125C12.7766 14.8125 13.4062 15.4421 13.4062 16.2188Z" stroke="#686FC8" stroke-width="1.4" stroke-miterlimit="10" stroke-linecap="round" stroke-linejoin="round"/>
<path d="M12 12C11.2234 12 10.5938 11.3704 10.5938 10.5938V4.92188C10.5938 4.14525 11.2234 3.51562 12 3.51562C12.7766 3.51562 13.4062 4.14525 13.4062 4.92188V10.5938C13.4062 11.3704 12.7766 12 12 12Z" stroke="#686FC8" stroke-width="1.4" stroke-miterlimit="10" stroke-linecap="round" stroke-linejoin="round"/>
</svg>
