<svg width="52" height="52" viewBox="0 0 52 52" fill="none" xmlns="http://www.w3.org/2000/svg">
<rect width="52" height="52" rx="26" fill="#E4F1FA"/>
<path d="M23.1583 19.7122L22.7556 18.8063C22.4923 18.2139 22.3607 17.9177 22.1638 17.691C21.9171 17.4069 21.5955 17.1979 21.2357 17.0879C20.9486 17 20.6245 17 19.9762 17C19.0279 17 18.5538 17 18.1557 17.1823C17.6869 17.397 17.2634 17.8633 17.0947 18.3506C16.9515 18.7643 16.9925 19.1894 17.0746 20.0397C17.9479 29.0902 22.9098 34.0521 31.9603 34.9254C32.8106 35.0075 33.2358 35.0485 33.6494 34.9053C34.1368 34.7366 34.603 34.3131 34.8178 33.8443C35 33.4462 35 32.9721 35 32.0238C35 31.3755 35 31.0514 34.9122 30.7643C34.8021 30.4045 34.5931 30.0829 34.309 29.8362C34.0824 29.6393 33.7862 29.5077 33.1938 29.2444L32.2878 28.8417C31.6463 28.5566 31.3255 28.4141 30.9996 28.3831C30.6876 28.3534 30.3731 28.3972 30.0811 28.5109C29.776 28.6297 29.5064 28.8544 28.967 29.3038C28.4302 29.7512 28.1618 29.9749 27.8338 30.0947C27.543 30.2009 27.1586 30.2403 26.8524 30.1951C26.5069 30.1442 26.2424 30.0029 25.7133 29.7201C24.0673 28.8405 23.1595 27.9328 22.2799 26.2867C21.9971 25.7577 21.8558 25.4931 21.8049 25.1477C21.7597 24.8414 21.7991 24.457 21.9053 24.1663C22.0251 23.8383 22.2488 23.5699 22.6962 23.033C23.1456 22.4937 23.3703 22.224 23.4891 21.9189C23.6028 21.6269 23.6466 21.3124 23.6169 21.0005C23.5859 20.6745 23.4434 20.3538 23.1583 19.7122Z" stroke="#4A90D8" stroke-width="1.5" stroke-linecap="round"/>
</svg>
