<svg width="25" height="25" viewBox="0 0 25 25" fill="none" xmlns="http://www.w3.org/2000/svg">
<g clip-path="url(#clip0_3975_27308)">
<path d="M3.49429 18.745C0.438401 14.3498 0.843659 8.22372 4.70976 4.28741C8.57587 0.351097 14.5926 -0.0615769 18.9093 3.04985" stroke="#686FC8" stroke-width="1.5" stroke-miterlimit="10" stroke-linecap="round" stroke-linejoin="round"/>
<path d="M18.9097 3.0498L16.6846 3.68248" stroke="#686FC8" stroke-width="1.5" stroke-miterlimit="10" stroke-linecap="round" stroke-linejoin="round"/>
<path d="M18.9094 3.04978L18.3545 0.766357" stroke="#686FC8" stroke-width="1.5" stroke-miterlimit="10" stroke-linecap="round" stroke-linejoin="round"/>
<path d="M21.5654 5.75354C24.6213 10.1488 24.2161 16.2748 20.35 20.2112C16.4839 24.1475 10.4672 24.5601 6.15039 21.4487" stroke="#686FC8" stroke-width="1.5" stroke-miterlimit="10" stroke-linecap="round" stroke-linejoin="round"/>
<path d="M6.15039 21.4487L8.37554 20.816" stroke="#686FC8" stroke-width="1.5" stroke-miterlimit="10" stroke-linecap="round" stroke-linejoin="round"/>
<path d="M6.15039 21.4487L6.70534 23.7322" stroke="#686FC8" stroke-width="1.5" stroke-miterlimit="10" stroke-linecap="round" stroke-linejoin="round"/>
<path d="M10.0225 15.1912H15.0405" stroke="#686FC8" stroke-width="1.5" stroke-miterlimit="10" stroke-linecap="round" stroke-linejoin="round"/>
<path d="M8.51713 16.724C9.34855 16.724 10.0225 16.0377 10.0225 15.1912C10.0225 14.3447 9.34855 13.6584 8.51713 13.6584C7.68572 13.6584 7.01172 14.3447 7.01172 15.1912C7.01172 16.0377 7.68572 16.724 8.51713 16.724Z" stroke="#686FC8" stroke-width="1.5" stroke-miterlimit="10" stroke-linecap="round" stroke-linejoin="round"/>
<path d="M16.5464 16.724C17.3778 16.724 18.0518 16.0377 18.0518 15.1912C18.0518 14.3447 17.3778 13.6584 16.5464 13.6584C15.715 13.6584 15.041 14.3447 15.041 15.1912C15.041 16.0377 15.715 16.724 16.5464 16.724Z" stroke="#686FC8" stroke-width="1.5" stroke-miterlimit="10" stroke-linecap="round" stroke-linejoin="round"/>
<path d="M18.0516 15.1911H20.1592V12.978C20.1592 11.6411 19.0947 10.5574 17.7817 10.5574H4.9043V15.1911H7.01188" stroke="#686FC8" stroke-width="1.5" stroke-miterlimit="10" stroke-linecap="round" stroke-linejoin="round"/>
<path d="M16.174 10.5575L14.3592 6.75281H8.79535L6.98047 10.5575" stroke="#686FC8" stroke-width="1.5" stroke-miterlimit="10" stroke-linecap="round" stroke-linejoin="round"/>
</g>
<defs>
<clipPath id="clip0_3975_27308">
<rect width="24.0612" height="24.4985" fill="white" transform="translate(0.5)"/>
</clipPath>
</defs>
</svg>
