<svg width="24" height="24" viewBox="0 0 24 24" fill="none" xmlns="http://www.w3.org/2000/svg">
<g clip-path="url(#clip0_4036_41025)">
<path d="M12.5528 7.34953C12.5345 7.30453 12.5116 7.26047 12.4853 7.21777L11.7686 6.06703C11.4958 5.62922 11.0425 5.33484 10.5316 5.26406L9.49 5.11969L5.94531 10.0781" stroke="#686FC8" stroke-width="1.2" stroke-miterlimit="10" stroke-linecap="round" stroke-linejoin="round"/>
<path d="M9.23422 12.9218L8.22266 14.3965" stroke="#686FC8" stroke-width="1.2" stroke-miterlimit="10" stroke-linecap="round" stroke-linejoin="round"/>
<path d="M8.71797 10.9117H8.45312C7.92437 10.9117 7.47625 11.3008 7.40172 11.8244L7.23438 13L8.28016 12.9212H9.23547H10.8517C11.8539 12.9212 12.6667 12.1089 12.6667 11.1067V7.84141C12.6667 7.66563 12.6259 7.4987 12.5533 7.34969C12.5519 7.34636 12.5505 7.34359 12.5491 7.34031" stroke="#686FC8" stroke-width="1.2" stroke-miterlimit="10" stroke-linecap="round" stroke-linejoin="round"/>
<path d="M9.4886 5.11995L5.94377 10.0786L7.37013 12.0329L7.23246 13.0002L6.76156 13.0951C6.0117 13.2461 5.24398 12.9357 4.80968 12.3061L4.01088 11.1479C3.60612 10.5611 3.61146 9.78387 4.0242 9.20272L6.22104 6.10915C6.66171 5.48858 7.37566 5.11995 8.13677 5.11995H9.4886Z" stroke="#686FC8" stroke-width="1.2" stroke-miterlimit="10" stroke-linecap="round" stroke-linejoin="round"/>
<path d="M8.22281 14.3959L8.66109 18.67C8.76328 19.7036 7.73625 20.5769 6.69891 20.5187L5.10938 20.471" stroke="#686FC8" stroke-width="1.2" stroke-miterlimit="10" stroke-linecap="round" stroke-linejoin="round"/>
<path d="M2.60746 20.3963L2.09418 20.3809L0.628401 21.0118C0.490589 21.0713 0.339651 20.9621 0.352307 20.8131L0.543557 18.5977C0.587151 18.218 0.919495 17.9382 1.30059 17.9598L1.93992 17.9918" stroke="#686FC8" stroke-width="1.2" stroke-miterlimit="10" stroke-linecap="round" stroke-linejoin="round"/>
<path d="M6.87824 16.314L5.10449 20.4601L5.4284 21.5495C5.4898 21.7563 5.32105 21.9597 5.1059 21.9367L3.12918 21.7267C2.8198 21.6916 2.58777 21.4272 2.59387 21.1164L2.60699 20.381L4.39855 16.3455L3.10527 15.0194C2.52027 14.4194 2.50574 13.4664 3.07246 12.849L4.27809 11.5361L5.52496 13.3441L6.49621 14.7367L6.58527 14.8642C6.97434 15.2397 7.09105 15.8167 6.87824 16.314Z" stroke="#686FC8" stroke-width="1.2" stroke-miterlimit="10" stroke-linecap="round" stroke-linejoin="round"/>
<path d="M11.9572 12.5424C12.0111 12.6755 12.0397 12.8213 12.0378 12.9746L12.0102 16.0309H14.9277C15.5253 16.0309 16.01 16.5151 16.01 17.1132V18.2246L14.8442 18.0404H11.608C10.6053 18.0404 9.79297 17.2276 9.79297 16.2253V12.9601C9.79297 12.947 9.79297 12.9338 9.79391 12.9207" stroke="#686FC8" stroke-width="1.2" stroke-miterlimit="10" stroke-linecap="round" stroke-linejoin="round"/>
<path d="M23.6491 16.6937L21.2463 14.8914L20.2342 15.7136L18.3447 17.2492C17.6748 17.7611 16.8138 17.9312 16.0117 17.7278" stroke="#686FC8" stroke-width="1.2" stroke-miterlimit="10" stroke-linecap="round" stroke-linejoin="round"/>
<path d="M17.5078 14.5342L20.2341 12.6653L20.3133 12.6109C20.7844 12.2875 21.4083 12.2959 21.8705 12.632L23.6489 13.9234" stroke="#686FC8" stroke-width="1.2" stroke-miterlimit="10" stroke-linecap="round" stroke-linejoin="round"/>
<path d="M12.6641 9.92094C13.3911 9.95703 14.0792 10.2992 14.548 10.8786L16.4669 13.25" stroke="#686FC8" stroke-width="1.2" stroke-miterlimit="10" stroke-linecap="round" stroke-linejoin="round"/>
<path d="M23.6492 16.6934L21.2464 14.891L20.2344 15.7132V12.6649L20.3136 12.6105C20.7847 12.2871 21.4086 12.2955 21.8708 12.6316L23.6492 13.923" stroke="#686FC8" stroke-width="1.2" stroke-miterlimit="10" stroke-linecap="round" stroke-linejoin="round"/>
<path d="M6.49567 14.737C5.75739 14.6057 5.01395 14.9891 4.69895 15.6829L4.39801 16.3457L3.10473 15.0196C2.51973 14.4196 2.5052 13.4666 3.07192 12.8493L4.27755 11.5363L5.52442 13.3443L6.49567 14.737Z" stroke="#686FC8" stroke-width="1.2" stroke-miterlimit="10" stroke-linecap="round" stroke-linejoin="round"/>
<path d="M6.07031 18.2082L8.66203 18.6699L8.22375 14.3958" stroke="#686FC8" stroke-width="1.2" stroke-miterlimit="10" stroke-linecap="round" stroke-linejoin="round"/>
<path d="M10.8158 7.88281L12.2806 6.89422L11.7659 6.06781C11.4931 5.63 11.0398 5.33563 10.5289 5.26484L9.85156 7.00297" stroke="#686FC8" stroke-width="1.2" stroke-miterlimit="10" stroke-linecap="round" stroke-linejoin="round"/>
<path d="M12.665 9.92049V9.92096L14.0263 13.2017C14.1856 13.5861 14.0483 14.0291 13.7 14.2564C13.4375 14.4275 13.1023 14.4429 12.8248 14.2967L12.0312 13.8777" stroke="#686FC8" stroke-width="1.2" stroke-miterlimit="10" stroke-linecap="round" stroke-linejoin="round"/>
<path d="M17.5061 14.5338L16.8086 15.0312" stroke="#686FC8" stroke-width="1.2" stroke-miterlimit="10" stroke-linecap="round" stroke-linejoin="round"/>
<path d="M10.4213 10.7708L9.96754 10.9613C9.21304 11.278 8.34473 10.9231 8.02804 10.1686L7.57607 9.09178C7.30405 8.44369 7.60888 7.69772 8.25702 7.42571L9.0959 7.07358C9.74404 6.80152 10.49 7.10639 10.762 7.75453L11.214 8.83139C11.5307 9.58589 11.1757 10.4542 10.4213 10.7708Z" stroke="#686FC8" stroke-width="1.2" stroke-miterlimit="10" stroke-linecap="round" stroke-linejoin="round"/>
<path d="M11.8246 5.92737L11.4156 5.65367C10.7356 5.19866 10.5532 4.2785 11.0082 3.59844L11.6577 2.62784C12.0486 2.04364 12.839 1.88698 13.4232 2.27792L14.1793 2.7838C14.7635 3.17469 14.9202 3.96519 14.5293 4.54939L13.8798 5.51998C13.4248 6.19995 12.5046 6.38239 11.8246 5.92737Z" stroke="#686FC8" stroke-width="1.2" stroke-miterlimit="10" stroke-linecap="round" stroke-linejoin="round"/>
<path d="M12.4851 7.21794C12.6768 7.52591 12.6679 7.91783 12.4631 8.21638L11.0469 10.2793" stroke="#686FC8" stroke-width="1.2" stroke-miterlimit="10" stroke-linecap="round" stroke-linejoin="round"/>
<path d="M12.8633 5.44725L13.061 6.11719" stroke="#686FC8" stroke-width="1.2" stroke-miterlimit="10" stroke-linecap="round" stroke-linejoin="round"/>
<path d="M10.4688 9.12109L11.2174 8.83178" stroke="#686FC8" stroke-width="1.2" stroke-miterlimit="10" stroke-linecap="round" stroke-linejoin="round"/>
</g>
<defs>
<clipPath id="clip0_4036_41025">
<rect width="24" height="24" fill="white"/>
</clipPath>
</defs>
</svg>
