<svg width="20" height="20" viewBox="0 0 20 20" fill="none" xmlns="http://www.w3.org/2000/svg">
<path d="M5.83317 5.00002V2.50002C5.83317 2.03979 6.20627 1.66669 6.6665 1.66669H16.6665C17.1267 1.66669 17.4998 2.03979 17.4998 2.50002V14.1667C17.4998 14.6269 17.1267 15 16.6665 15H14.1665V17.4993C14.1665 17.9599 13.7916 18.3334 13.3275 18.3334H3.33888C2.87549 18.3334 2.5 17.9629 2.5 17.4993L2.50217 5.83408C2.50225 5.37345 2.8772 5.00002 3.34118 5.00002H5.83317ZM4.16868 6.66669L4.16682 16.6667H12.4998V6.66669H4.16868ZM7.49983 5.00002H14.1665V13.3334H15.8332V3.33335H7.49983V5.00002Z" fill="#4B4B4B"/>
</svg>
