<svg width="24" height="24" viewBox="0 0 24 24" fill="none" xmlns="http://www.w3.org/2000/svg">
<g opacity="0.3">
<path fill-rule="evenodd" clip-rule="evenodd" d="M4.1021 5.87866H19.9008C20.9111 5.87866 21.7373 6.70493 21.7373 7.71514V16.2848C21.7373 17.2951 20.9111 18.1213 19.9008 18.1213H4.1021C3.0919 18.1213 2.26562 17.2951 2.26562 16.2848V7.71514C2.26562 6.70493 3.0919 5.87866 4.1021 5.87866Z" fill="#2E4451"/>
<mask id="mask0_4067_41288" style="mask-type:luminance" maskUnits="userSpaceOnUse" x="2" y="5" width="20" height="14">
<path d="M4.1021 5.87866H19.9008C20.9111 5.87866 21.7373 6.70493 21.7373 7.71514V16.2848C21.7373 17.2951 20.9111 18.1213 19.9008 18.1213H4.1021C3.0919 18.1213 2.26562 17.2951 2.26562 16.2848V7.71514C2.26562 6.70493 3.0919 5.87866 4.1021 5.87866Z" fill="white"/>
</mask>
<g mask="url(#mask0_4067_41288)">
<path fill-rule="evenodd" clip-rule="evenodd" d="M0.890625 8.32202H23.1078V10.3705H0.890625V8.32202Z" fill="white"/>
</g>
<path fill-rule="evenodd" clip-rule="evenodd" d="M4.99219 12.5045H9.50622V13.2426H4.99219V12.5045Z" fill="white"/>
<path fill-rule="evenodd" clip-rule="evenodd" d="M4.99219 13.7614H13.2447V15.0396H4.99219V13.7614Z" fill="white"/>
<path d="M16.8016 15.4943C17.4515 15.4943 17.9783 14.9675 17.9783 14.3176C17.9783 13.6678 17.4515 13.141 16.8016 13.141C16.1518 13.141 15.625 13.6678 15.625 14.3176C15.625 14.9675 16.1518 15.4943 16.8016 15.4943Z" fill="#FF4141"/>
<path d="M18.5204 15.4943C19.1702 15.4943 19.697 14.9675 19.697 14.3176C19.697 13.6678 19.1702 13.141 18.5204 13.141C17.8706 13.141 17.3438 13.6678 17.3438 14.3176C17.3438 14.9675 17.8706 15.4943 18.5204 15.4943Z" fill="#FF9933"/>
</g>
</svg>
