<svg width="24" height="24" viewBox="0 0 24 24" fill="none" xmlns="http://www.w3.org/2000/svg">
<path d="M21.292 23C21.683 23 22 22.7761 22 22.5C22 22.2239 21.683 22 21.292 22H2.70796C2.31697 22 2 22.2239 2 22.5C2 22.7761 2.31697 23 2.70796 23H21.292Z" fill="#686FC8"/>
<path d="M5 22.3043C5 22.6885 5.30207 23 5.6747 23C6.04732 23 6.3494 22.6885 6.3494 22.3043V20.3913H17.6506V22.3043C17.6506 22.6885 17.9527 23 18.3253 23C18.6979 23 19 22.6885 19 22.3043V19.6957C19 19.3115 18.6979 19 18.3253 19H5.6747C5.30207 19 5 19.3115 5 19.6957V22.3043Z" fill="#686FC8"/>
<path d="M13 16C13 16.5523 12.5523 17 12 17C11.4477 17 11 16.5523 11 16C11 15.4477 11.4477 15 12 15C12.5523 15 13 15.4477 13 16Z" fill="#686FC8"/>
<path d="M11 9.86957V13.1304C11 13.6107 11.4477 14 12 14C12.5523 14 13 13.6107 13 13.1304V9.86957C13 9.38932 12.5523 9 12 9C11.4477 9 11 9.38932 11 9.86957Z" fill="#686FC8"/>
<path d="M3.2381 13C3.65888 13 4 12.5523 4 12C4 11.4477 3.65888 11 3.2381 11H1.7619C1.34112 11 1 11.4477 1 12C1 12.5523 1.34112 13 1.7619 13H3.2381Z" fill="#686FC8"/>
<path d="M22.2381 13C22.6589 13 23 12.5523 23 12C23 11.4477 22.6589 11 22.2381 11H20.7619C20.3411 11 20 11.4477 20 12C20 12.5523 20.3411 13 20.7619 13H22.2381Z" fill="#686FC8"/>
<path d="M11 1.7619V3.2381C11 3.65888 11.4477 4 12 4C12.5523 4 13 3.65888 13 3.2381V1.7619C13 1.34112 12.5523 1 12 1C11.4477 1 11 1.34112 11 1.7619Z" fill="#686FC8"/>
<path d="M4.97335 5.82388C5.2082 6.05873 5.58895 6.05868 5.82384 5.82388C6.05872 5.589 6.05872 5.20828 5.82384 4.9734L5.0266 4.17616C4.79172 3.94128 4.411 3.94128 4.17612 4.17616C3.94132 4.41105 3.94127 4.7918 4.17612 5.02665L4.97335 5.82388Z" fill="#686FC8"/>
<path d="M18.1762 5.82384C18.411 6.05872 18.7918 6.05872 19.0266 5.82384L19.8238 5.02663C20.0587 4.79175 20.0587 4.41103 19.8238 4.17616C19.589 3.94128 19.2082 3.94128 18.9734 4.17616L18.1762 4.97337C17.9413 5.20825 17.9413 5.58897 18.1762 5.82384Z" fill="#686FC8"/>
<path d="M6 11.7177V19.3273C6 19.6988 6.31603 20 6.70588 20C7.09573 20 7.41176 19.6988 7.41176 19.3273V11.7177C7.41177 9.30293 9.466 7.34535 12 7.34535C14.534 7.34535 16.5882 9.30293 16.5882 11.7177V19.3273C16.5882 19.6988 16.9043 20 17.2941 20C17.684 20 18 19.6988 18 19.3273V11.7177C18 8.55992 15.3137 6 12 6C8.6863 6 6 8.55992 6 11.7177Z" fill="#686FC8"/>
</svg>
