<svg width="24" height="24" viewBox="0 0 24 24" fill="none" xmlns="http://www.w3.org/2000/svg">
<path d="M7.9342 15.8935C7.9342 18.4094 4.31869 21.7852 4.31869 21.7852C4.31869 21.7852 0.703125 18.4094 0.703125 15.8935C0.703125 13.8968 2.32186 12.278 4.31869 12.278C6.31547 12.278 7.9342 13.8968 7.9342 15.8935Z" stroke="#686FC8" stroke-width="1.4" stroke-miterlimit="10"/>
<path d="M5.01306 15.8939C5.01306 16.2772 4.70233 16.5879 4.31903 16.5879C3.93573 16.5879 3.625 16.2772 3.625 15.8939C3.625 15.5106 3.93573 15.1998 4.31903 15.1998C4.70233 15.1998 5.01306 15.5106 5.01306 15.8939Z" stroke="#686FC8" stroke-width="1.4" stroke-miterlimit="10"/>
<path d="M23.3014 5.58005C23.3014 8.09593 19.6859 11.4717 19.6859 11.4717C19.6859 11.4717 16.0703 8.09593 16.0703 5.58005C16.0703 3.58327 17.689 1.96454 19.6859 1.96454C21.6827 1.96454 23.3014 3.58327 23.3014 5.58005Z" stroke="#686FC8" stroke-width="1.4" stroke-miterlimit="10"/>
<path d="M20.3802 5.58038C20.3802 5.96368 20.0695 6.27441 19.6862 6.27441C19.3029 6.27441 18.9922 5.96368 18.9922 5.58038C18.9922 5.19709 19.3029 4.88635 19.6862 4.88635C20.0695 4.88635 20.3802 5.19709 20.3802 5.58038Z" stroke="#686FC8" stroke-width="1.4" stroke-miterlimit="10"/>
<path d="M7.13281 21.7852H17.1075C18.5315 21.7852 19.6858 20.6308 19.6858 19.2069V19.2068C19.6858 17.7829 18.5315 16.6286 17.1075 16.6286H13.1749C11.751 16.6286 10.5966 15.4742 10.5966 14.0503C10.5966 12.6263 11.751 11.472 13.1749 11.472H16.8732" stroke="#686FC8" stroke-width="1.4" stroke-miterlimit="10"/>
</svg>
