<svg width="24" height="24" viewBox="0 0 24 24" fill="none" xmlns="http://www.w3.org/2000/svg">
<g clip-path="url(#clip0_4032_37696)">
<path d="M23.5261 19.9355L21.9688 18.3783" stroke="#686FC8" stroke-width="1.4" stroke-miterlimit="10" stroke-linecap="round" stroke-linejoin="round"/>
<path d="M17.1094 20.9268L19.831 23.6484" stroke="#686FC8" stroke-width="1.4" stroke-miterlimit="10" stroke-linecap="round" stroke-linejoin="round"/>
<path d="M14.7467 9.88281L13.7445 7.13608C13.5833 6.69428 13.3275 6.29298 12.9949 5.96045L11.3004 4.26592C10.8242 3.78972 10.0521 3.78972 9.57591 4.26592C9.28317 4.55866 9.17044 4.96309 9.23752 5.34184" stroke="#686FC8" stroke-width="1.4" stroke-miterlimit="10" stroke-linecap="round" stroke-linejoin="round"/>
<path d="M20.7779 17.1875L19.3398 15.7495" stroke="#686FC8" stroke-width="1.4" stroke-miterlimit="10" stroke-linecap="round" stroke-linejoin="round"/>
<path d="M9.30078 14.9594V15.5508" stroke="#686FC8" stroke-width="1.4" stroke-miterlimit="10" stroke-linecap="round" stroke-linejoin="round"/>
<path d="M0.476562 4.29471L2.91134 6.72949" stroke="#686FC8" stroke-width="1.4" stroke-miterlimit="10" stroke-linecap="round" stroke-linejoin="round"/>
<path d="M9.30414 17.2348V17.709C9.30414 18.2641 9.73581 18.7369 10.2906 18.7566C10.873 18.7773 11.3516 18.3113 11.3516 17.7335V18.8339C11.3516 19.3993 11.81 19.8576 12.3754 19.8576C12.9408 19.8576 13.3991 19.3993 13.3991 18.8339V19.3588C13.3991 19.9139 13.8308 20.3867 14.3855 20.4064C14.968 20.4271 15.4466 19.9611 15.4466 19.3833V19.9313C15.4466 20.4967 15.905 20.9551 16.4703 20.9551C17.0357 20.9551 17.4941 20.4967 17.4941 19.9313V13.901L19.1948 15.6048C19.6656 16.077 20.4286 16.0831 20.907 15.6186C21.395 15.1447 21.4008 14.3631 20.9198 13.8821L18.8813 11.8435C18.5487 11.511 18.1475 11.2551 17.7056 11.0939L12.9527 9.3597L4.42188 0.351078" stroke="#686FC8" stroke-width="1.4" stroke-miterlimit="10" stroke-linecap="round" stroke-linejoin="round"/>
<path d="M6.89062 13.7233C6.89062 14.2887 7.34897 14.7471 7.91437 14.7471H9.1642C9.72961 14.7471 10.188 14.2887 10.188 13.7233C10.188 13.1579 9.72961 12.6996 9.1642 12.6996H7.91437C7.34897 12.6996 6.89062 13.1579 6.89062 13.7233Z" stroke="#686FC8" stroke-width="1.4" stroke-miterlimit="10" stroke-linecap="round" stroke-linejoin="round"/>
<path d="M5.24219 11.6764C5.24219 12.2419 5.70053 12.7002 6.26594 12.7002H8.35347C8.91887 12.7002 9.37717 12.2419 9.37717 11.6764C9.37717 11.111 8.91887 10.6527 8.35347 10.6527H6.26594C5.70053 10.6527 5.24219 11.111 5.24219 11.6764Z" stroke="#686FC8" stroke-width="1.4" stroke-miterlimit="10" stroke-linecap="round" stroke-linejoin="round"/>
<path d="M4.02344 9.62859C4.02344 10.194 4.48178 10.6523 5.04719 10.6523H7.15881C7.72417 10.6523 8.18256 10.194 8.18256 9.62859C8.18256 9.06319 7.72417 8.60484 7.15881 8.60484H5.04719C4.48178 8.60484 4.02344 9.06319 4.02344 9.62859Z" stroke="#686FC8" stroke-width="1.4" stroke-miterlimit="10" stroke-linecap="round" stroke-linejoin="round"/>
<path d="M3.58384 6.56135C3.0617 6.60799 2.65234 7.04646 2.65234 7.58074C2.65234 8.1461 3.11069 8.60449 3.67609 8.60449H5.28498C5.85039 8.60449 6.30873 8.14615 6.30873 7.58079C6.30873 7.01543 5.85039 6.55699 5.28498 6.55699H5.26792" stroke="#686FC8" stroke-width="1.4" stroke-miterlimit="10" stroke-linecap="round" stroke-linejoin="round"/>
<path d="M11.3516 17.5938V16.599" stroke="#686FC8" stroke-width="1.4" stroke-miterlimit="10" stroke-linecap="round" stroke-linejoin="round"/>
<path d="M13.3984 18.6934V17.1067" stroke="#686FC8" stroke-width="1.4" stroke-miterlimit="10" stroke-linecap="round" stroke-linejoin="round"/>
<path d="M15.4453 19.2432V17.81" stroke="#686FC8" stroke-width="1.4" stroke-miterlimit="10" stroke-linecap="round" stroke-linejoin="round"/>
</g>
<defs>
<clipPath id="clip0_4032_37696">
<rect width="24" height="24" fill="white"/>
</clipPath>
</defs>
</svg>
