<svg width="24" height="24" viewBox="0 0 24 24" fill="none" xmlns="http://www.w3.org/2000/svg">
<g clip-path="url(#clip0_4036_41094)">
<path d="M10.9023 12.5195L12.7207 16.2221" stroke="#686FC8" stroke-width="1.4" stroke-miterlimit="10" stroke-linejoin="round"/>
<path d="M14.6836 11.5579L16.3349 10.8101C16.7764 10.6102 17.2746 10.5744 17.7401 10.7092L21.8064 11.8864C22.5017 12.0877 22.9028 12.814 22.7028 13.5097C22.5022 14.2073 21.7735 14.6095 21.0763 14.4076L17.28 13.3078L15.0151 14.5134" stroke="#686FC8" stroke-width="1.4" stroke-miterlimit="10" stroke-linecap="round" stroke-linejoin="round"/>
<path d="M6.02047 16.0697L6.39731 12.4747L4.93277 10.022C4.61364 9.48754 4.78896 8.79547 5.32413 8.47747C5.85734 8.16059 6.54646 8.33482 6.86494 8.86714L8.40719 11.4446C8.60716 11.7789 8.70752 12.1633 8.69646 12.5526L8.66637 13.6083" stroke="#686FC8" stroke-width="1.4" stroke-miterlimit="10" stroke-linecap="round" stroke-linejoin="round"/>
<path d="M5.99034 15.5612C6.18816 16.6829 5.43908 17.7527 4.3173 17.9505L3.67103 18.0645C2.54925 18.2623 1.4795 17.5132 1.28168 16.3914C1.08387 15.2696 1.83294 14.1999 2.95472 14.0021L3.60099 13.8881C4.72278 13.6903 5.79252 14.4394 5.99034 15.5612Z" stroke="#686FC8" stroke-width="1.4" stroke-miterlimit="10" stroke-linecap="round" stroke-linejoin="round"/>
<path d="M15.4811 4.0524C14.8492 3.7177 14.0638 3.96783 13.7118 4.59015L11.6408 8.25091C11.4022 8.67269 11.322 9.16573 11.4145 9.64142L11.879 12.0287L7.14514 14.4095C6.43067 14.7689 6.01628 15.4871 6.00958 16.2353L5.96158 19.7998L4.22104 21.5708C3.78529 22.0142 3.7918 22.7269 4.23557 23.1623C4.67883 23.5972 5.39059 23.5907 5.82583 23.1477L7.84218 21.0957C8.01994 20.9145 8.13117 20.6786 8.15789 20.4262L8.37029 18.4094L14.0172 15.5707C14.6699 15.2425 15.0726 14.6148 15.1425 13.9382C15.1676 13.6953 15.1478 13.4387 15.0833 13.1948L14.063 9.29862L16.0097 5.85894C16.3728 5.21716 16.1367 4.3997 15.4811 4.0524Z" stroke="#686FC8" stroke-width="1.4" stroke-miterlimit="10" stroke-linecap="round" stroke-linejoin="round"/>
<path d="M19.1523 1.93555V5.84966" stroke="#686FC8" stroke-width="1.4" stroke-miterlimit="10" stroke-linecap="round" stroke-linejoin="round"/>
<path d="M4.62109 3.03711V4.58672" stroke="#686FC8" stroke-width="1.4" stroke-miterlimit="10" stroke-linecap="round" stroke-linejoin="round"/>
<path d="M8.54297 1.62988V5.30001" stroke="#686FC8" stroke-width="1.4" stroke-miterlimit="10" stroke-linecap="round" stroke-linejoin="round"/>
<path d="M12 0.515625V1.58153" stroke="#686FC8" stroke-width="1.4" stroke-miterlimit="10" stroke-linecap="round" stroke-linejoin="round"/>
</g>
<defs>
<clipPath id="clip0_4036_41094">
<rect width="24" height="24" fill="white"/>
</clipPath>
</defs>
</svg>
