<svg width="24" height="24" viewBox="0 0 24 24" fill="none" xmlns="http://www.w3.org/2000/svg">
<path d="M13.1764 15.0995C13.3546 14.89 13.6032 14.9548 13.7321 15.2444H13.7327L13.7333 15.2463C13.7339 15.2476 13.7346 15.2498 13.7357 15.2522C13.738 15.2573 13.7415 15.2647 13.7459 15.2745C13.7547 15.2943 13.7677 15.3233 13.7841 15.3601C13.817 15.4339 13.8636 15.5399 13.9199 15.6665C14.0326 15.9196 14.1829 16.2574 14.3332 16.5952C14.6253 17.2518 14.9395 17.9568 14.9487 17.98C15.0673 18.2805 15.0137 18.6804 14.829 18.8737C14.6441 19.067 14.3977 18.9799 14.2788 18.6792C14.2854 18.6959 13.9969 18.0484 13.6878 17.3537C13.5376 17.016 13.3878 16.6781 13.2751 16.425C13.2188 16.2984 13.1716 16.1925 13.1388 16.1187C13.1224 16.0819 13.1093 16.0528 13.1005 16.0331C13.0962 16.0234 13.0926 16.0158 13.0903 16.0107C13.0893 16.0083 13.0885 16.0061 13.0879 16.0049L13.0873 16.0039V16.0029C12.9585 15.7133 12.9983 15.3091 13.1764 15.0995Z" fill="#686FC8"/>
<path d="M11.4694 13.9766C11.7687 13.9766 12.0117 14.2006 12.0117 14.4766C12.0117 14.7525 11.7687 14.9766 11.4694 14.9766H8.55406C8.25471 14.9766 8.01172 14.7525 8.01172 14.4766C8.01172 14.2006 8.25471 13.9766 8.55406 13.9766H11.4694Z" fill="#686FC8"/>
<path d="M6.68199 15.2107C6.91988 14.9575 7.37885 14.9009 7.70766 15.084C8.03644 15.2672 8.11003 15.6205 7.87216 15.8737L5.66626 18.2222C5.56648 18.3283 5.49665 18.4424 5.45538 18.5588C5.34868 18.8602 4.9449 19.0387 4.55337 18.9566C4.1618 18.8744 3.93106 18.5628 4.03777 18.2613C4.12476 18.0157 4.26978 17.7776 4.47498 17.5592L6.68199 15.2107Z" fill="#686FC8"/>
<path d="M7.29035 11.0206C7.52728 10.9066 7.80507 11.0216 7.91073 11.2773L9.9709 16.2628C10.0766 16.5186 9.96996 16.8184 9.73305 16.9325C9.49611 17.0466 9.21836 16.9315 9.11267 16.6758L7.05251 11.6903C6.9469 11.4345 7.05344 11.1346 7.29035 11.0206Z" fill="#686FC8"/>
<path d="M5.3688 12.0255C5.67244 11.8988 6.02843 12.0266 6.16383 12.311L8.95956 18.1829C9.09467 18.4673 8.95826 18.8008 8.65475 18.9276C8.35116 19.0544 7.9952 18.9264 7.85972 18.6421L5.06399 12.7702C4.92866 12.4858 5.06518 12.1524 5.3688 12.0255Z" fill="#686FC8"/>
<path d="M9.01172 18.39V17.9356C9.01186 17.3857 9.29364 16.897 9.71062 16.7211L10.2664 16.4869L10.2713 16.4807L12.1134 11.3243C12.219 11.0286 12.4966 10.8956 12.7333 11.0275C12.97 11.1594 13.0765 11.506 12.971 11.8016L11.1289 16.9589V16.9598C11.0211 17.2608 10.8172 17.4927 10.5661 17.5983L10.0111 17.8317C9.97532 17.8468 9.95126 17.889 9.95112 17.9356V18.39C9.95112 18.7138 9.74067 18.9766 9.48142 18.9766C9.22217 18.9766 9.01172 18.7138 9.01172 18.39Z" fill="#686FC8"/>
<path d="M12.0117 18.4136V17.8354C12.0118 17.6794 12.0404 17.5256 12.0951 17.384L12.0959 17.3823L14.0716 12.3103C14.1822 12.0265 14.4726 11.8989 14.7204 12.0255C14.968 12.152 15.0795 12.4848 14.9691 12.7685L12.9948 17.8371V18.4136C12.9948 18.7243 12.7746 18.9766 12.5033 18.9766C12.232 18.9766 12.0117 18.7243 12.0117 18.4136Z" fill="#686FC8"/>
<path d="M12.0634 6.30411C12.184 6.01129 12.4771 5.89288 12.7181 6.0394L15.0009 7.42714C15.8754 7.95829 16.2515 9.23356 15.8528 10.3194L15.0068 12.6251C14.954 12.7687 14.8563 12.8808 14.7355 12.9371C14.6147 12.9933 14.4805 12.9895 14.3624 12.9255L13.012 12.1929C12.8938 12.1288 12.801 12.01 12.7547 11.8631C12.7084 11.7162 12.7123 11.5531 12.765 11.4094L13.2532 10.0796C13.3631 9.78046 13.6515 9.64574 13.8976 9.77925C14.1435 9.9128 14.2536 10.2636 14.1439 10.5627L13.8543 11.3506L14.314 11.5993L14.9613 9.83629V9.8354C15.1353 9.36158 14.9923 8.81042 14.638 8.53947L14.5647 8.48866L12.2811 7.10003C12.0403 6.95338 11.9429 6.59704 12.0634 6.30411Z" fill="#686FC8"/>
<path d="M7.95623 6.0393C8.31641 5.89306 8.75454 6.01112 8.93469 6.30369C9.11476 6.59634 8.9683 6.95227 8.60817 7.09865L5.17425 8.49361C4.5655 8.74063 4.30398 9.33436 4.58148 9.83961L5.54789 11.6005L6.23489 11.3521L5.80318 10.5651C5.63932 10.2663 5.80466 9.91589 6.17243 9.78264C6.5402 9.64962 6.97157 9.78389 7.13555 10.0826L7.86419 11.4108C8.0282 11.7097 7.86275 12.06 7.49494 12.1933L5.47667 12.9251C5.10885 13.0583 4.67763 12.9239 4.51355 12.6251L3.24911 10.3221C2.65382 9.23786 3.21467 7.96399 4.52231 7.43337L7.95623 6.0393Z" fill="#686FC8"/>
<path d="M15.021 18.8327C15.021 18.9262 15.0322 19.0193 15.0546 19.1102L15.0715 19.1941C15.128 19.6124 14.7966 19.9766 14.3873 19.9766H13.602C13.2762 19.9766 13.0117 19.7103 13.0117 19.3823C13.0119 19.0545 13.2763 18.789 13.602 18.789H13.8413C13.8551 18.0153 14.2339 17.2933 14.8632 16.8449V16.844L15.8053 16.173V16.1739C16.2807 15.8349 16.9371 15.9437 17.2801 16.4157L17.4211 16.6093H19.4223C19.748 16.6094 20.0116 16.8748 20.0117 17.2027C20.0117 17.5306 19.7481 17.7968 19.4223 17.7969H17.3883C17.0762 17.7968 16.7813 17.6651 16.572 17.4391L16.4878 17.3365L16.3947 17.208L15.5448 17.8138C15.216 18.0481 15.021 18.4281 15.021 18.8327Z" fill="#686FC8"/>
<path d="M15.0602 20.9766C15.2459 20.9766 15.4302 21.0092 15.6061 21.0728L15.7386 21.1209C15.9461 21.1959 16.0598 21.4434 15.9922 21.6737C15.9246 21.9038 15.7014 22.0298 15.4938 21.955L15.3614 21.9069C15.2641 21.8718 15.1624 21.8542 15.0602 21.8542H14.4073C14.189 21.8542 14.0117 21.6576 14.0117 21.4154C14.0117 21.1732 14.189 20.9766 14.4073 20.9766H15.0602Z" fill="#686FC8"/>
<path d="M20.6354 15.9822C20.9551 16.0176 21.2364 16.2137 21.4545 16.5119C21.8792 17.093 22.0626 18.0426 21.9996 19.1295C21.9793 19.4798 21.7483 19.7422 21.4834 19.7156C21.2184 19.6887 21.0199 19.3824 21.0402 19.032C21.0917 18.1435 20.9238 17.6168 20.7626 17.3962C20.688 17.2942 20.6175 17.2578 20.5559 17.2509C20.4918 17.2438 20.3916 17.2644 20.258 17.3809C20.1713 17.4566 20.1227 17.5973 20.057 17.9718C20.033 18.1085 19.9939 18.3588 19.9167 18.5597C19.8732 18.673 19.8036 18.8116 19.6897 18.9221C19.5692 19.039 19.4299 19.0947 19.2878 19.098C19.2141 19.0996 19.1641 19.1213 19.1294 19.1448C19.0933 19.1694 19.0622 19.2039 19.0362 19.2452C19.0094 19.2876 18.9903 19.3334 18.9791 19.3695C18.9736 19.3872 18.9708 19.3989 18.9704 19.401L18.9747 19.3408L18.9646 19.4689C18.9197 19.7588 18.7257 19.9766 18.4932 19.9766C18.2607 19.9766 18.0668 19.7588 18.0218 19.4689L18.0117 19.3408C18.0117 19.1797 18.0484 19.0154 18.0884 18.8867C18.1329 18.7432 18.2004 18.5832 18.2966 18.4306C18.4681 18.1587 18.7308 17.915 19.0889 17.8456C19.0975 17.8003 19.1079 17.7492 19.1193 17.684C19.1741 17.3718 19.278 16.7112 19.7273 16.3188H19.7281C20.0068 16.0756 20.318 15.9473 20.6354 15.9822Z" fill="#686FC8"/>
<path d="M16.6157 19.9945C16.9546 19.9215 17.3047 20.078 17.3977 20.3437C17.4906 20.6093 17.2918 20.8838 16.9532 20.9568C16.5499 21.0435 16.4175 21.1781 16.3624 21.2595C16.3076 21.3409 16.2904 21.4276 16.2859 21.5091C16.2868 21.51 16.2879 21.5112 16.2888 21.5121C16.3247 21.5496 16.4041 21.6137 16.5536 21.6837C16.8518 21.8234 17.4174 21.979 18.3947 21.979C19.8001 21.979 20.5352 21.3332 20.7749 20.7986C20.8914 20.5387 21.255 20.4023 21.5865 20.4936C21.918 20.585 22.092 20.87 21.9755 21.1299C21.5754 22.022 20.3945 22.9766 18.3947 22.9766C17.2532 22.9765 16.4459 22.7958 15.9007 22.5404C15.6288 22.413 15.4188 22.265 15.2708 22.1102C15.1351 21.9682 15.0117 21.7781 15.0117 21.5698C15.0117 21.4393 15.016 21.1215 15.2373 20.7934C15.4725 20.4447 15.9082 20.1468 16.6157 19.9945Z" fill="#686FC8"/>
<path d="M17.3414 19.2747C17.5133 19.0329 18.0068 18.9141 18.4428 19.0095C18.965 19.1238 19.3939 19.2826 19.6754 19.494C19.9692 19.7146 20.0763 19.976 19.9737 20.2288C19.7787 20.7092 18.9295 20.9948 18.1011 20.9757C16.9112 20.9481 15.9419 20.3738 16.0157 19.7528C16.0466 19.4935 16.4509 19.2974 16.9182 19.3143C17.0558 19.3194 17.1819 19.3443 17.293 19.3808C17.3022 19.3453 17.3167 19.3096 17.3414 19.2747ZM17.7251 19.8575C17.7402 19.8808 17.7686 19.9107 17.822 19.9424C17.9155 19.9977 18.0417 20.032 18.1725 20.035C18.2087 20.0358 18.2397 20.031 18.2656 20.0258C18.2005 19.992 18.0688 19.9394 17.8207 19.8851C17.7869 19.8777 17.7562 19.8669 17.7251 19.8575Z" fill="#686FC8"/>
<path d="M13.8537 20.7175V20.3153C13.8536 19.9019 13.7458 19.5195 13.5607 19.2014C13.2502 18.6678 12.7255 18.3193 12.1314 18.3193H2.59073C2.27114 18.3193 2.01172 18.0185 2.01172 17.6479C2.01172 17.2774 2.27114 16.9766 2.59073 16.9766H12.1314C13.1263 16.9766 14.0032 17.5631 14.5196 18.4504C14.8297 18.9831 15.0117 19.6257 15.0117 20.3153V20.7175C15.0117 20.8083 15.0067 20.898 14.9978 20.9856C14.8834 22.1074 14.0602 22.9766 13.0634 22.9766H2.59073C2.27114 22.9766 2.01172 22.6758 2.01172 22.3052C2.01172 21.9346 2.27114 21.6338 2.59073 21.6338H13.0634C13.4679 21.6338 13.8023 21.2813 13.8485 20.8284C13.8521 20.7924 13.8537 20.7552 13.8537 20.7175Z" fill="#686FC8"/>
<path d="M8.39489 21.9766C8.73532 21.9766 9.01172 22.2006 9.01172 22.4766C9.01172 22.7525 8.73532 22.9765 8.39489 22.9766H2.62855C2.28809 22.9766 2.01172 22.7525 2.01172 22.4766C2.01172 22.2006 2.28809 21.9766 2.62855 21.9766H8.39489Z" fill="#686FC8"/>
<path d="M8.39489 19.9766C8.73535 19.9766 9.01172 20.2006 9.01172 20.4766C9.01172 20.7525 8.73535 20.9766 8.39489 20.9766H2.62855C2.28809 20.9766 2.01172 20.7525 2.01172 20.4766C2.01172 20.2006 2.28809 19.9766 2.62855 19.9766H8.39489Z" fill="#686FC8"/>
<path d="M11.9277 21.4769C11.9277 21.1881 11.6675 20.9539 11.347 20.9538H9.09659V22.4879C9.09659 22.7576 8.85355 22.9766 8.55415 22.9766C8.25475 22.9766 8.01172 22.7576 8.01172 22.4879V20.6919C8.01177 20.2972 8.36719 19.9766 8.80582 19.9766H11.347C12.2663 19.9767 13.0117 20.6487 13.0117 21.4769C13.0115 22.305 12.2662 22.9764 11.347 22.9766C11.0476 22.9766 10.8045 22.7576 10.8045 22.4879C10.8046 22.2183 11.0476 22 11.347 22C11.6674 21.9999 11.9275 21.7656 11.9277 21.4769Z" fill="#686FC8"/>
<path d="M9.5251 1.06585C10.2145 0.889734 11.0041 0.971962 11.6919 1.332C11.9541 1.46948 12.0804 1.85494 11.9739 2.19299C11.8674 2.53114 11.5683 2.69368 11.3059 2.55645C10.809 2.29634 10.2233 2.2354 9.72468 2.36281C9.21344 2.49348 8.89296 2.7903 8.77072 3.11357C8.68427 3.34193 8.50401 3.48649 8.30685 3.48498C8.21327 3.48427 8.17518 3.51129 8.16198 3.52271C8.14786 3.53498 8.12293 3.56399 8.09725 3.64287C8.03796 3.82508 8.01491 4.15532 8.06643 4.6141C8.11585 5.054 8.22435 5.53372 8.36078 5.95772C8.50081 6.39284 8.65205 6.71352 8.76302 6.87036C8.95367 7.14 8.93891 7.55789 8.72988 7.80384C8.52059 8.04981 8.19565 8.03086 8.00479 7.76114C7.77907 7.44213 7.57397 6.96197 7.41376 6.46419C7.25 5.95525 7.11434 5.36898 7.05083 4.80377C6.98945 4.25725 6.98497 3.64167 7.151 3.13144C7.23798 2.86419 7.37733 2.60988 7.58868 2.42636C7.71571 2.31607 7.8557 2.24266 8.00401 2.20193C8.35905 1.57085 8.94376 1.21445 9.5251 1.06585Z" fill="#686FC8"/>
<path d="M12.3415 2.11171C12.4671 1.88662 12.6447 1.94913 12.7383 2.25128C13.1378 3.54279 13.1234 5.39911 12.5358 7.65664C12.4526 7.97614 12.2777 8.07232 12.1449 7.87216C12.0122 7.67184 11.9718 7.25074 12.055 6.93107C12.5758 4.92999 12.4879 3.72949 12.2835 3.06819C12.1899 2.76562 12.2158 2.33704 12.3415 2.11171Z" fill="#686FC8"/>
<path d="M11.9389 5.43864C11.4345 6.2409 10.8722 6.70535 10.392 6.96667C10.1291 7.10973 9.89337 7.19044 9.70928 7.23417C9.61756 7.25594 9.53606 7.2697 9.46827 7.27631C9.4298 7.28005 9.35026 7.28584 9.26837 7.27356C9.45011 7.56614 9.74985 7.75716 10.0889 7.75725H10.9353C11.4897 7.75703 11.9389 7.24594 11.9389 6.61581V5.43864ZM13.0117 6.61581C13.0117 7.91947 12.0823 8.97634 10.9353 8.97656H10.0889C8.94185 8.97641 8.01172 7.91945 8.01172 6.61581V6.32083C8.01172 5.72037 8.59078 5.39311 9.00801 5.69056L9.08942 5.75835L9.26031 5.91317C9.31388 5.95799 9.36295 5.99633 9.4054 6.02676C9.41749 6.03543 9.42974 6.04171 9.44006 6.04875C9.45482 6.04594 9.47175 6.04485 9.49004 6.04051C9.59528 6.0155 9.74816 5.9646 9.92853 5.86645C10.285 5.67243 10.7605 5.28707 11.1908 4.5198L11.2674 4.40071C11.4592 4.13784 11.7463 3.9766 12.0581 3.97656H12.2476C12.6697 3.97656 13.0117 4.36624 13.0117 4.84593V6.61581Z" fill="#686FC8"/>
</svg>
