<svg width="24" height="24" viewBox="0 0 24 24" fill="none" xmlns="http://www.w3.org/2000/svg">
<g clip-path="url(#clip0_4037_44015)">
<path d="M2.15858 20.4878C2.8453 10.7327 10.7328 2.84531 20.4878 2.15859M23.2969 2.10937C23.2969 2.88605 22.6673 3.5625 21.8906 3.5625C21.114 3.5625 20.4844 2.88605 20.4844 2.10937C20.4844 1.3327 21.114 0.703125 21.8906 0.703125C22.6673 0.703125 23.2969 1.3327 23.2969 2.10937ZM3.51562 21.8906C3.51562 22.6673 2.886 23.2968 2.10938 23.2968C1.33275 23.2968 0.703125 22.6673 0.703125 21.8906C0.703125 21.1139 1.33275 20.4843 2.10938 20.4843C2.886 20.4843 3.51562 21.1139 3.51562 21.8906Z" stroke="#686FC8" stroke-width="1.5" stroke-miterlimit="10"/>
</g>
<defs>
<clipPath id="clip0_4037_44015">
<rect width="24" height="24" fill="white"/>
</clipPath>
</defs>
</svg>
