<svg width="24" height="24" viewBox="0 0 24 24" fill="none" xmlns="http://www.w3.org/2000/svg">
<g clip-path="url(#clip0_4032_39675)">
<path d="M15.7647 4.83077L22.6835 1.16777C22.8128 1.09957 22.9694 1.1029 23.0949 1.17907C23.2205 1.25477 23.2975 1.39085 23.2975 1.53771V18.6956C23.2975 18.8505 23.2117 18.9932 23.0749 19.0656L15.9606 22.8319C15.9447 22.8403 15.9271 22.8449 15.9103 22.8512C15.8986 22.8554 15.8877 22.8609 15.876 22.8642C15.8397 22.8742 15.8024 22.8805 15.7647 22.8805M15.7647 4.83077L8.84633 1.16777C8.84089 1.16482 8.83456 1.16402 8.82917 1.16149C8.80906 1.15188 8.78853 1.14476 8.76762 1.13847C8.75591 1.13515 8.74461 1.13135 8.73289 1.12886C8.70987 1.12427 8.68644 1.12258 8.66258 1.12169C8.65212 1.12132 8.64167 1.12005 8.6308 1.12047M15.7647 4.83077V22.8805M8.6308 1.12047C8.6082 1.12169 8.58603 1.12591 8.56381 1.13097C8.55125 1.13341 8.53873 1.13515 8.52655 1.1389C8.52364 1.13974 8.52069 1.13974 8.5182 1.14058L0.985484 3.65149C0.814297 3.7084 0.699219 3.86824 0.699219 4.04862V22.0435C0.699219 22.1779 0.763671 22.3043 0.873312 22.3833C0.945312 22.4348 1.03109 22.462 1.11767 22.462C1.16206 22.462 1.20683 22.4549 1.24995 22.4403L8.63455 19.9788M8.6308 1.12047L8.63455 19.9788M8.63455 19.9788L15.6053 22.8491C15.6111 22.8517 15.6178 22.8508 15.6237 22.8529C15.6697 22.8693 15.7166 22.8805 15.7647 22.8805" stroke="#686FC8" stroke-width="1.5" stroke-miterlimit="10"/>
</g>
<defs>
<clipPath id="clip0_4032_39675">
<rect width="24" height="24" fill="white"/>
</clipPath>
</defs>
</svg>
