<svg width="24" height="24" viewBox="0 0 24 24" fill="none" xmlns="http://www.w3.org/2000/svg">
<g clip-path="url(#clip0_4038_48438)">
<path d="M21.4666 20.9658L22.1327 20.4067C22.4879 20.1087 22.534 19.5793 22.236 19.2242C22.0698 19.0261 21.8318 18.9241 21.5921 18.9241C21.4019 18.9241 21.2105 18.9887 21.0531 19.1205L20.2266 19.8144" stroke="#686FC8" stroke-width="1.2" stroke-miterlimit="10" stroke-linecap="round" stroke-linejoin="round"/>
<path d="M3.62303 19.6861L2.94972 19.1211C2.79231 18.9893 2.6009 18.9247 2.41074 18.9247C2.17105 18.9247 1.93304 19.0267 1.76681 19.2248C1.46878 19.5799 1.51495 20.1093 1.87008 20.4073L2.5161 20.9492" stroke="#686FC8" stroke-width="1.2" stroke-miterlimit="10" stroke-linecap="round" stroke-linejoin="round"/>
<path d="M19.4427 18.9991L19.8793 18.2427C20.111 17.8414 19.9737 17.3276 19.572 17.0959C19.4398 17.0195 19.2958 16.9834 19.1531 16.9834C18.863 16.9834 18.5805 17.1341 18.4252 17.4032L17.5 19.0059" stroke="#686FC8" stroke-width="1.2" stroke-miterlimit="10" stroke-linecap="round" stroke-linejoin="round"/>
<path d="M15.2572 4.21027C15.2572 4.67394 14.8813 5.0498 14.4177 5.0498C13.954 5.0498 13.5781 4.67394 13.5781 4.21027C13.5781 3.74659 13.954 3.37073 14.4177 3.37073C14.8813 3.37073 15.2572 3.74659 15.2572 4.21027Z" stroke="#686FC8" stroke-width="1.2" stroke-miterlimit="10" stroke-linecap="round" stroke-linejoin="round"/>
<path d="M3.46033 8.14679C3.46033 8.61042 3.08447 8.98633 2.62079 8.98633C2.15711 8.98633 1.78125 8.61042 1.78125 8.14679C1.78125 7.68311 2.15711 7.30725 2.62079 7.30725C3.08447 7.30725 3.46033 7.68311 3.46033 8.14679Z" stroke="#686FC8" stroke-width="1.2" stroke-miterlimit="10" stroke-linecap="round" stroke-linejoin="round"/>
<path d="M12.4301 12.8025C12.4301 13.2082 12.1012 13.5371 11.6955 13.5371C11.2898 13.5371 10.9609 13.2082 10.9609 12.8025C10.9609 12.3968 11.2898 12.0679 11.6955 12.0679C12.1012 12.0679 12.4301 12.3968 12.4301 12.8025Z" stroke="#686FC8" stroke-width="1.2" stroke-miterlimit="10" stroke-linecap="round" stroke-linejoin="round"/>
<path d="M10.8754 2.30349C10.8754 2.7092 10.5466 3.03809 10.1408 3.03809C9.73514 3.03809 9.40625 2.7092 9.40625 2.30349C9.40625 1.89778 9.73514 1.56889 10.1408 1.56889C10.5466 1.56889 10.8754 1.89778 10.8754 2.30349Z" stroke="#686FC8" stroke-width="1.2" stroke-miterlimit="10" stroke-linecap="round" stroke-linejoin="round"/>
<path d="M21.0733 3.31296C21.0733 4.00843 20.5095 4.57227 19.814 4.57227C19.1185 4.57227 18.5547 4.00843 18.5547 3.31296C18.5547 2.61744 19.1185 2.05365 19.814 2.05365C20.5095 2.05365 21.0733 2.61744 21.0733 3.31296Z" stroke="#686FC8" stroke-width="1.2" stroke-miterlimit="10" stroke-linecap="round" stroke-linejoin="round"/>
<path d="M13.1147 21.2959C12.8443 20.9072 12.4465 20.6613 12.0027 20.6613C11.5588 20.6613 11.161 20.9072 10.8906 21.2959" stroke="#686FC8" stroke-width="1.2" stroke-miterlimit="10" stroke-linecap="round" stroke-linejoin="round"/>
<path d="M8.57031 19.8343C8.74422 20.0339 9.00007 20.1602 9.28556 20.1602C9.57104 20.1602 9.82689 20.0339 10.0008 19.8343" stroke="#686FC8" stroke-width="1.2" stroke-miterlimit="10" stroke-linecap="round" stroke-linejoin="round"/>
<path d="M15.4305 19.8343C15.2566 20.0339 15.0007 20.1602 14.7152 20.1602C14.4298 20.1602 14.1739 20.0339 14 19.8343" stroke="#686FC8" stroke-width="1.2" stroke-miterlimit="10" stroke-linecap="round" stroke-linejoin="round"/>
<path d="M6.88656 18.0085L6.68297 17.4489C6.52472 17.0132 6.04282 16.7886 5.6071 16.9473C5.26625 17.0711 5.05469 17.3931 5.05469 17.736C5.05469 17.8313 5.07106 17.9283 5.10548 18.0232L5.60249 19.3887" stroke="#686FC8" stroke-width="1.2" stroke-miterlimit="10" stroke-linecap="round" stroke-linejoin="round"/>
<path d="M10.431 17.1285L10.2055 15.8507C10.125 15.3944 9.68965 15.0893 9.23294 15.1698C8.82576 15.2416 8.53906 15.5959 8.53906 15.9955C8.53906 16.0438 8.54326 16.0929 8.55208 16.1425L8.95002 18.4004" stroke="#686FC8" stroke-width="1.2" stroke-miterlimit="10" stroke-linecap="round" stroke-linejoin="round"/>
<path d="M13.1235 17.0955C13.5672 17.2882 13.937 17.5799 14.1524 17.9552C14.2431 18.1135 14.3232 18.2747 14.5029 18.3032C14.6859 18.3322 14.8668 18.3641 15.0465 18.3993C15.2224 18.4338 15.4012 18.3536 15.4906 18.1983C16.0094 17.2949 17.4917 17.7231 17.4409 18.7708C17.432 18.9492 17.5399 19.1121 17.7057 19.1784C17.8086 19.2196 17.9106 19.2615 18.0117 19.3048C18.1696 19.3724 18.3492 19.3346 18.4735 19.2162C19.1678 18.5542 20.4246 19.2427 20.221 20.1892C20.1853 20.3538 20.255 20.5234 20.3931 20.6199C20.5304 20.716 20.6655 20.8143 20.7973 20.915C20.8956 20.9897 21.0223 21.0179 21.1424 20.9897C21.6478 20.8709 22.1847 21.1476 22.3664 21.653C22.4529 21.8918 22.4298 22.4316 22.4298 22.4316H1.57526C1.52447 22.1013 1.85861 20.7097 2.848 20.9784C2.97477 21.0128 3.11078 20.9889 3.2153 20.9091C3.29506 20.8487 3.37523 20.7891 3.45667 20.7303C3.60065 20.6262 3.66739 20.444 3.61702 20.274C3.31479 19.2569 4.67106 18.4921 5.38593 19.2662C5.50724 19.3971 5.69866 19.4336 5.86153 19.3619C5.99124 19.3052 6.12178 19.2498 6.25401 19.1969C6.41604 19.1314 6.52266 18.974 6.51805 18.7994C6.49244 17.7814 7.91588 17.3541 8.45234 18.2247C8.54385 18.3733 8.7189 18.4468 8.88974 18.4128C8.9674 18.3972 9.04506 18.3825 9.12313 18.3679C9.27341 18.3406 9.37458 18.2235 9.44468 18.0874C9.87536 17.2487 10.7699 16.8584 11.6791 16.829" stroke="#686FC8" stroke-width="1.2" stroke-miterlimit="10" stroke-linecap="round" stroke-linejoin="round"/>
<path d="M8.69364 16.9238C8.26463 16.3685 7.90321 15.7695 7.61315 15.1377C7.43685 14.754 7.28699 14.3586 7.16442 13.9544C7.13839 13.8687 7.17197 13.7764 7.24459 13.7243C7.41166 13.6047 7.57537 13.4809 7.73572 13.352C8.37629 12.8382 8.96355 12.2535 9.48448 11.6041C9.86857 11.126 9.75229 10.4195 9.23808 10.0854C9.2322 10.0816 9.2259 10.0778 9.22045 10.074C8.77045 9.78187 8.17606 9.88304 7.83982 10.3003C7.57495 10.629 7.29077 10.9367 6.98601 11.2242C6.90458 11.301 6.76983 11.2406 6.77403 11.1285C6.81265 10.0841 7.0855 9.05609 7.49561 8.08559C7.53885 7.98232 7.60224 7.88955 7.68157 7.81064C8.20334 7.28928 8.67684 6.71462 9.09242 6.09336C9.43495 5.58166 9.26074 4.88653 8.71714 4.5973L8.69867 4.58723C8.56603 4.51629 8.42414 4.47767 8.2831 4.46801C8.15213 4.45962 8.02116 4.47599 7.89691 4.51545C7.67779 4.58555 7.48092 4.72869 7.34366 4.93312C7.0918 5.30839 6.81475 5.66226 6.51461 5.99346C6.45039 6.06398 6.33411 6.04089 6.30179 5.95148C6.16159 5.56067 6.04741 5.16021 5.96094 4.75304" stroke="#686FC8" stroke-width="1.2" stroke-miterlimit="10" stroke-linecap="round" stroke-linejoin="round"/>
<path d="M6.18842 16.9502C5.99994 16.6249 5.82909 16.2907 5.67462 15.9495C5.63474 15.8613 5.56632 15.7895 5.48027 15.7459C4.0669 15.023 2.80801 14.0059 1.79805 12.7479C1.41354 12.2689 1.5294 11.5625 2.04403 11.2279L2.06166 11.2166C2.50704 10.9278 3.10101 11.0184 3.43347 11.4323C3.7462 11.8219 4.08789 12.1829 4.45477 12.5132C4.5383 12.5888 4.67095 12.5233 4.66381 12.4112C4.58532 11.1263 4.72972 9.83511 5.0861 8.59595C5.11716 8.48765 5.10415 8.37179 5.05 8.27273C4.10342 6.54244 3.61649 4.58127 3.66015 2.58191C3.67316 1.96863 4.21634 1.50227 4.82543 1.57699C4.83214 1.57783 4.83928 1.57866 4.84641 1.5795C5.37826 1.64499 5.76907 2.10422 5.75815 2.64026C5.75354 2.8598 5.75689 3.0785 5.76823 3.29636" stroke="#686FC8" stroke-width="1.2" stroke-miterlimit="10" stroke-linecap="round" stroke-linejoin="round"/>
<path d="M14.8146 11.6093C15.3406 11.9443 15.8951 12.2369 16.4739 12.4824C16.565 12.5211 16.6171 12.6168 16.5999 12.7137C16.5067 13.2443 16.3677 13.7623 16.186 14.2631C16.1322 14.4113 15.9412 14.4499 15.8334 14.3345C15.6806 14.1703 15.5328 13.9999 15.3909 13.824C15.056 13.4072 14.4616 13.3086 14.0128 13.6003L13.9952 13.6116C13.4768 13.9483 13.3685 14.6581 13.7559 15.1396C14.0653 15.5241 14.3978 15.8864 14.7512 16.2238C14.9065 16.3729 14.9267 16.6142 14.7944 16.7842C14.5422 17.1083 14.268 17.4168 13.9729 17.7061" stroke="#686FC8" stroke-width="1.2" stroke-miterlimit="10" stroke-linecap="round" stroke-linejoin="round"/>
<path d="M13.6297 10.7412C12.5556 9.84293 11.648 8.74565 10.963 7.49726C10.6683 6.95995 10.9063 6.28538 11.4709 6.04611C11.4772 6.0436 11.4839 6.04066 11.4902 6.03814C11.9834 5.82867 12.5518 6.031 12.8104 6.50072C13.6671 8.05681 14.9495 9.32367 16.4913 10.1624C16.6374 10.2417 16.8133 10.1288 16.8019 9.96298C16.7432 9.09406 16.5618 8.23143 16.2567 7.40113C16.072 6.89783 16.2919 6.33659 16.7738 6.10152C16.7852 6.09607 16.7965 6.09019 16.8078 6.08473C17.3619 5.81398 17.997 6.05787 18.2115 6.63589C18.3005 6.87516 18.3811 7.11611 18.4529 7.35915C18.4907 7.4855 18.651 7.52118 18.7396 7.42338C18.8542 7.29577 18.9659 7.1648 19.0737 7.03047C19.407 6.61532 20.0014 6.52129 20.4481 6.81135L20.4657 6.82269C20.9833 7.15934 21.0932 7.86833 20.7062 8.34939C20.1949 8.98534 19.6203 9.55916 18.9944 10.0646C18.9432 10.1061 18.9142 10.1687 18.9163 10.2346C18.9373 10.9096 18.8979 11.5858 18.7988 12.2549C18.7732 12.427 18.9566 12.5538 19.1082 12.469C19.6673 12.1567 20.1958 11.7856 20.6844 11.3583C21.0878 11.0057 21.691 11.0095 22.0831 11.3751C22.0881 11.3801 22.0931 11.3847 22.0986 11.3894C22.5469 11.8079 22.5389 12.5236 22.0776 12.9282C20.9996 13.8731 19.7617 14.5968 18.4348 15.0737C18.2103 15.1543 18.0306 15.3243 17.9374 15.5438C17.605 16.3263 17.186 17.0688 16.6882 17.7568" stroke="#686FC8" stroke-width="1.2" stroke-miterlimit="10" stroke-linecap="round" stroke-linejoin="round"/>
</g>
<defs>
<clipPath id="clip0_4038_48438">
<rect width="24" height="24" fill="white"/>
</clipPath>
</defs>
</svg>
