<svg width="20" height="15" viewBox="0 0 20 15" fill="none" xmlns="http://www.w3.org/2000/svg">
<rect width="20" height="15" fill="white"/>
<path d="M3.16204 1C1.72274 1 0.613281 1.92955 0.613281 3.54876V8.16651C0.733223 8.73623 1.33293 9.15603 1.99261 9.15603C2.74224 9.15603 3.28198 8.61629 3.28198 7.95661V5.61775H5.32099V7.92663C5.32099 9.216 3.67179 9.87568 2.47238 9.87568C1.78271 9.87568 1.12303 9.66578 0.643267 9.30595V14.4035H3.88169C5.02113 14.4035 6.34049 13.324 6.34049 11.9447V1H3.16204Z" fill="#1174CE"/>
<path d="M0.613281 3.54876V8.16651C0.733223 8.73623 1.33293 9.15603 1.99261 9.15603C2.74224 9.15603 3.28198 8.61629 3.28198 7.95661V5.61775H5.32099V7.92663C5.32099 9.216 3.67179 9.87568 2.47238 9.87568C1.78271 9.87568 1.12303 9.66578 0.643267 9.30595V14.4035H3.88169C5.02113 14.4035 6.34049 13.324 6.34049 11.9447V1" fill="#0F549D"/>
<path d="M5.291 5.61768V7.92655C5.291 9.21592 3.64181 9.8756 2.44239 9.8756C1.75273 9.8756 1.09305 9.6657 0.613281 9.30588V14.4034H3.8517C4.99115 14.4034 6.31051 13.3239 6.31051 11.9446" fill="#02375E"/>
<path d="M14.4961 9.09625H15.9054C16.2652 9.09625 16.5951 8.76641 16.5951 8.40658C16.5951 8.04676 16.2652 7.71692 15.9054 7.71692H14.4961V9.09625Z" fill="#146643"/>
<path d="M16.0866 1C14.6173 1 13.5378 1.92955 13.5378 3.51877V5.61775H17.316C17.8557 5.61775 18.3055 6.06753 18.3055 6.60727C18.3055 7.14701 17.8557 7.59679 17.316 7.59679C17.9157 7.59679 18.3954 8.01658 18.3954 8.55632C18.3954 9.09606 17.9457 9.51585 17.316 9.51585H13.5078V14.4035H16.7462C17.8857 14.4035 19.205 13.324 19.205 11.9447V1H16.0866Z" fill="#1BCC38"/>
<path d="M13.5078 3.54876V5.61775H17.286C17.8257 5.61775 18.2755 6.06753 18.2755 6.60727C18.2755 7.14701 17.8257 7.59679 17.286 7.59679C17.8857 7.59679 18.3654 8.01658 18.3654 8.55632C18.3654 9.09606 17.9157 9.51585 17.286 9.51585H13.5078V14.4035H16.7462C17.8857 14.4035 19.205 13.324 19.205 11.9447V1" fill="#329947"/>
<path d="M18.2755 6.60742C18.2755 7.14716 17.8257 7.59694 17.286 7.59694C17.8857 7.59694 18.3654 8.01673 18.3654 8.55647C18.3654 9.09621 17.9157 9.516 17.286 9.516H13.5078V14.4036H16.7462C17.8857 14.4036 19.205 13.3242 19.205 11.9448" fill="#146643"/>
<path d="M16.5651 6.72726C16.5651 6.36744 16.2352 6.0376 15.8754 6.0376H14.4961V7.38694H15.9054C16.2652 7.38694 16.5651 7.08709 16.5651 6.72726Z" fill="#146643"/>
<path d="M9.58001 1C8.11072 1 7.03125 1.92955 7.03125 3.51877V6.09752C7.39107 5.79766 7.84086 5.58777 8.32062 5.58777H11.739V6.30742C10.9294 6.1275 10.1497 6.03755 9.75992 6.03755C8.92033 6.03755 8.23067 6.72721 8.23067 7.5668C8.23067 8.40639 8.92033 9.09606 9.75992 9.09606C10.1497 9.09606 10.9294 9.03609 11.739 8.85617V9.51585H8.32062C7.84086 9.51585 7.36109 9.33594 7.03125 9.0061V14.4035H10.2697C11.4091 14.4035 12.7285 13.324 12.7285 11.9447V1H9.58001Z" fill="#E20E37"/>
<path d="M7.03125 3.54876V6.1275C7.39107 5.82765 7.84086 5.61775 8.32062 5.61775H11.739V6.3374C10.9294 6.15749 10.1497 6.06753 9.75992 6.06753C8.92033 6.06753 8.23067 6.7572 8.23067 7.59679C8.23067 8.43638 8.92033 9.12604 9.75992 9.12604C10.1497 9.12604 10.9294 9.06607 11.739 8.88616V9.51585H8.32062C7.84086 9.51585 7.36109 9.33594 7.03125 9.0061V14.4035H10.2697C11.4091 14.4035 12.7285 13.324 12.7285 11.9447V1" fill="#B41F36"/>
<path d="M11.739 5.61768V6.33733C10.9294 6.15741 10.1497 6.06746 9.75992 6.06746C8.92033 6.06746 8.23067 6.75712 8.23067 7.59671C8.23067 8.4363 8.92033 9.12597 9.75992 9.12597C10.1497 9.12597 10.9294 9.066 11.739 8.88608V9.51578H8.32062C7.84086 9.51578 7.36109 9.33586 7.03125 9.00602V14.4034H10.2697C11.4091 14.4034 12.7285 13.3239 12.7285 11.9446" fill="#720A1E"/>
</svg>
