<svg width="20" height="15" viewBox="0 0 20 15" fill="none" xmlns="http://www.w3.org/2000/svg">
<rect width="20" height="15" fill="#242424"/>
<path d="M7.57672 11.4034C9.62112 11.4034 11.2784 9.74612 11.2784 7.70172C11.2784 5.65732 9.62112 4 7.57672 4C5.53232 4 3.875 5.65732 3.875 7.70172C3.875 9.74612 5.53232 11.4034 7.57672 11.4034Z" fill="#FF6041"/>
<path d="M12.2447 11.4034C14.2891 11.4034 15.9464 9.74612 15.9464 7.70172C15.9464 5.65732 14.2891 4 12.2447 4C10.2003 4 8.54297 5.65732 8.54297 7.70172C8.54297 9.74612 10.2003 11.4034 12.2447 11.4034Z" fill="#FFD941"/>
<path fill-rule="evenodd" clip-rule="evenodd" d="M9.91029 4.83752C10.7444 5.51558 11.2776 6.54921 11.2776 7.70778C11.2776 8.86635 10.7444 9.89998 9.91029 10.578C9.07616 9.89998 8.54297 8.86635 8.54297 7.70778C8.54297 6.54921 9.07616 5.51558 9.91029 4.83752Z" fill="#FFD941"/>
<mask id="mask0_4067_41250" style="mask-type:luminance" maskUnits="userSpaceOnUse" x="8" y="4" width="4" height="7">
<path d="M9.91029 4.83752C10.7444 5.51558 11.2776 6.54921 11.2776 7.70778C11.2776 8.86635 10.7444 9.89998 9.91029 10.578C9.07616 9.89998 8.54297 8.86635 8.54297 7.70778C8.54297 6.54921 9.07616 5.51558 9.91029 4.83752Z" fill="white"/>
</mask>
<g mask="url(#mask0_4067_41250)">
<path fill-rule="evenodd" clip-rule="evenodd" d="M7.85156 5.56616H12.2652V6.04667H7.85156V5.56616Z" fill="#FF6041"/>
<path fill-rule="evenodd" clip-rule="evenodd" d="M7.85156 6.5094H12.2652V6.98991H7.85156V6.5094Z" fill="#FF6041"/>
<path fill-rule="evenodd" clip-rule="evenodd" d="M7.85156 7.47058H12.2652V7.95109H7.85156V7.47058Z" fill="#FF6041"/>
<path fill-rule="evenodd" clip-rule="evenodd" d="M7.85156 8.4137H12.2652V8.89421H7.85156V8.4137Z" fill="#FF6041"/>
<path fill-rule="evenodd" clip-rule="evenodd" d="M7.85156 9.35693H12.2652V9.83745H7.85156V9.35693Z" fill="#FF6041"/>
</g>
</svg>
