<svg width="25" height="24" viewBox="0 0 25 24" fill="none" xmlns="http://www.w3.org/2000/svg">
<g clip-path="url(#clip0_4037_42645)">
<path d="M8.83594 18.3281V19.0312C8.83594 19.8048 8.20031 20.4404 7.42676 20.4404C7.04016 20.4404 6.72656 20.754 6.72656 21.1406C6.72656 21.5272 7.04016 21.8408 7.42676 21.8408C8.97351 21.8408 10.2363 20.578 10.2363 19.0312V18.3281C10.2363 17.9415 9.92273 17.6279 9.53613 17.6279C9.14953 17.6279 8.83594 17.9415 8.83594 18.3281Z" fill="#686FC8"/>
<path d="M14.4609 18.3281V19.0312C14.4609 20.578 15.7238 21.8408 17.2705 21.8408C17.6571 21.8408 17.9707 21.5272 17.9707 21.1406C17.9707 20.754 17.6571 20.4404 17.2705 20.4404C16.497 20.4404 15.8613 19.8048 15.8613 19.0312V18.3281C15.8613 17.9415 15.5477 17.6279 15.1611 17.6279C14.7745 17.6279 14.4609 17.9415 14.4609 18.3281Z" fill="#686FC8"/>
<path d="M23.2969 16.9219C23.2969 17.3087 22.9777 17.6279 22.5908 17.6279H2.10645C1.71961 17.6279 1.40039 17.3087 1.40039 16.9219V2.85938C1.40039 2.47254 1.71961 2.15332 2.10645 2.15332H22.5908C22.9777 2.15332 23.2969 2.47254 23.2969 2.85938V16.9219ZM24.6973 2.85938C24.6973 1.69934 23.7509 0.75293 22.5908 0.75293H2.10645C0.946409 0.75293 0 1.69934 0 2.85938V16.9219C0 18.0819 0.946409 19.0283 2.10645 19.0283H22.5908C23.7509 19.0283 24.6973 18.0819 24.6973 16.9219V2.85938Z" fill="#686FC8"/>
<path d="M23.9971 16.2158C24.3837 16.2158 24.6973 15.9022 24.6973 15.5156C24.6973 15.129 24.3837 14.8154 23.9971 14.8154H0.700195C0.313596 14.8154 0 15.129 0 15.5156C0 15.9022 0.313596 16.2158 0.700195 16.2158H23.9971Z" fill="#686FC8"/>
<path d="M21.8867 23.0469C22.1629 23.0469 22.3867 22.823 22.3867 22.5469C22.3867 21.4973 21.53 20.6406 20.4805 20.6406H13.0508C12.7746 20.6406 12.5508 20.8645 12.5508 21.1406C12.5508 21.4168 12.7746 21.6406 13.0508 21.6406H20.4805C20.7935 21.6406 21.0713 21.8028 21.2344 22.0469H3.46094C3.624 21.8028 3.90183 21.6406 4.21484 21.6406H11.6445C11.9207 21.6406 12.1445 21.4168 12.1445 21.1406C12.1445 20.8645 11.9207 20.6406 11.6445 20.6406H4.21484C3.16526 20.6406 2.30859 21.4973 2.30859 22.5469C2.30859 22.823 2.53245 23.0469 2.80859 23.0469H21.8867Z" fill="#686FC8"/>
</g>
<defs>
<clipPath id="clip0_4037_42645">
<rect width="25" height="24" fill="white"/>
</clipPath>
</defs>
</svg>
