<svg width="80" height="16" viewBox="0 0 80 16" fill="none" xmlns="http://www.w3.org/2000/svg">
<path d="M8 2L10.0395 5.68183L14 6.58359L11.3 9.76085L11.7082 14L8 12.2818L4.2918 14L4.7 9.76085L2 6.58359L5.96049 5.68183L8 2Z" fill="#FF9500"/>
<path d="M24 2L26.0395 5.68183L30 6.58359L27.3 9.76085L27.7082 14L24 12.2818L20.2918 14L20.7 9.76085L18 6.58359L21.9605 5.68183L24 2Z" fill="#FF9500"/>
<path d="M40 2L42.0395 5.68183L46 6.58359L43.3 9.76085L43.7082 14L40 12.2818L36.2918 14L36.7 9.76085L34 6.58359L37.9605 5.68183L40 2Z" fill="#FF9500"/>
<path d="M56 2L58.0395 5.68183L62 6.58359L59.3 9.76085L59.7082 14L56 12.2818L52.2918 14L52.7 9.76085L50 6.58359L53.9605 5.68183L56 2Z" fill="#FF9500"/>
<path d="M72 2L69.9605 5.68183L66 6.58359L68.7 9.76085L68.2918 14L72 12.2818V2Z" fill="#FF9500"/>
</svg>
