<svg width="24" height="24" viewBox="0 0 24 24" fill="none" xmlns="http://www.w3.org/2000/svg">
<path d="M12.002 0.703125V3.52734V10.125" stroke="#686FC8" stroke-width="1.5" stroke-miterlimit="10" stroke-linecap="round" stroke-linejoin="round"/>
<path d="M4.0127 4.01197L6.00957 6.00885L10.675 10.6743" stroke="#686FC8" stroke-width="1.5" stroke-miterlimit="10" stroke-linecap="round" stroke-linejoin="round"/>
<path d="M0.705078 12H3.5293H10.127" stroke="#686FC8" stroke-width="1.5" stroke-miterlimit="10" stroke-linecap="round" stroke-linejoin="round"/>
<path d="M4.0127 19.9879L6.00957 17.991L10.675 13.3256" stroke="#686FC8" stroke-width="1.5" stroke-miterlimit="10" stroke-linecap="round" stroke-linejoin="round"/>
<path d="M12.002 23.2969V20.4727V13.875" stroke="#686FC8" stroke-width="1.5" stroke-miterlimit="10" stroke-linecap="round" stroke-linejoin="round"/>
<path d="M19.9895 19.9879L17.9926 17.991L13.3271 13.3256" stroke="#686FC8" stroke-width="1.5" stroke-miterlimit="10" stroke-linecap="round" stroke-linejoin="round"/>
<path d="M23.2988 12H20.4746H13.877" stroke="#686FC8" stroke-width="1.5" stroke-miterlimit="10" stroke-linecap="round" stroke-linejoin="round"/>
<path d="M19.9895 4.01197L17.9926 6.00885L13.3271 10.6743" stroke="#686FC8" stroke-width="1.5" stroke-miterlimit="10" stroke-linecap="round" stroke-linejoin="round"/>
<path d="M13.877 12C13.877 12.5175 13.667 12.9863 13.3276 13.3256C12.9882 13.665 12.5195 13.875 12.002 13.875C11.4845 13.875 11.0157 13.665 10.6763 13.3256C10.337 12.9863 10.127 12.5175 10.127 12C10.127 11.4825 10.337 11.0138 10.6763 10.6744C11.0157 10.335 11.4845 10.125 12.002 10.125C12.5195 10.125 12.9882 10.335 13.3276 10.6744C13.667 11.0138 13.877 11.4825 13.877 12Z" stroke="black" stroke-width="1.40625" stroke-miterlimit="10" stroke-linejoin="round"/>
<path d="M12.002 13.875C11.4845 13.875 11.0157 13.665 10.6763 13.3256C10.337 12.9862 10.127 12.5175 10.127 12C10.127 11.4825 10.337 11.0138 10.6763 10.6744C11.0157 10.335 11.4845 10.125 12.002 10.125C12.5195 10.125 12.9882 10.335 13.3276 10.6744C13.667 11.0138 13.877 11.4825 13.877 12C13.877 12.5175 13.667 12.9862 13.3276 13.3256C12.9882 13.665 12.5195 13.875 12.002 13.875ZM17.993 6.00891C16.4598 4.47563 14.342 3.52734 12.002 3.52734C9.66195 3.52734 7.54414 4.47563 6.01086 6.00891C4.47758 7.54219 3.5293 9.66 3.5293 12C3.5293 14.34 4.47758 16.4578 6.01086 17.9911C7.54414 19.5244 9.66195 20.4727 12.002 20.4727C14.342 20.4727 16.4598 19.5244 17.993 17.9911C19.5263 16.4578 20.4746 14.34 20.4746 12C20.4746 9.66 19.5263 7.54219 17.993 6.00891Z" stroke="#686FC8" stroke-width="1.5" stroke-linecap="round" stroke-linejoin="round"/>
</svg>
