<svg width="24" height="24" viewBox="0 0 24 24" fill="none" xmlns="http://www.w3.org/2000/svg">
<g clip-path="url(#clip0_4036_41136)">
<path d="M11.9975 16.9709C11.4946 16.9709 11.0833 17.3822 11.0833 17.885V18.6164H10.6948C10.0799 18.6164 9.58311 19.1277 9.59811 19.7399C9.61236 20.3312 10.1003 20.8104 10.6948 20.8104H11.0833V21.5417C11.0833 22.0446 11.4947 22.4559 11.9975 22.4559H13.0738C13.1099 23.0417 13.604 23.4984 14.1953 23.484C14.7659 23.4704 15.2286 23.021 15.2635 22.4559H16.3398C16.8426 22.4559 17.254 22.0445 17.254 21.5417V20.8104H17.6425C18.2574 20.8104 18.7542 20.2991 18.7392 19.6868C18.7249 19.0956 18.237 18.6164 17.6425 18.6164H17.254V17.885C17.254 17.3822 16.8426 16.9709 16.3398 16.9709H15.6367M15.6367 16.9709L14.5603 16.9708C14.5255 17.5359 14.0628 17.9853 13.4922 17.9989C12.9009 18.0133 12.4068 17.5566 12.3707 16.9708H11.2943C10.7915 16.9708 10.3802 16.5594 10.3802 16.0566V15.3253H9.99167C9.39716 15.3253 8.90923 14.8461 8.89498 14.2549C8.87998 13.6426 9.37677 13.1313 9.99167 13.1313H10.3802V12.3999C10.3802 11.8971 10.7915 11.4858 11.2943 11.4858M15.6367 16.9709C16.1395 16.9709 16.5508 16.5594 16.5508 16.0566V15.3253H16.9393C17.5543 15.3253 18.051 14.814 18.036 14.2017C18.0218 13.6105 17.5339 13.1312 16.9393 13.1312H16.5508V12.3999C16.5508 11.8971 16.1395 11.4857 15.6367 11.4857H14.9336M14.9336 11.4857L13.8572 11.4857C13.8223 12.0508 13.3597 12.5003 12.7891 12.5139C12.1977 12.5282 11.7036 12.0715 11.6675 11.4857H10.5912C10.0884 11.4857 9.67705 11.0744 9.67705 10.5716V9.84024H9.28855C8.69403 9.84024 8.20611 9.36104 8.19186 8.7698C8.17686 8.15752 8.67364 7.64621 9.28855 7.64621H9.67705V6.91487C9.67705 6.41209 10.0884 6.00071 10.5912 6.00071L11.2943 6.0007M14.9336 11.4857C15.4364 11.4857 15.8477 11.0744 15.8477 10.5716V9.84024H16.2362C16.8511 9.84024 17.3479 9.32893 17.3329 8.71665C17.3187 8.12541 16.8307 7.64616 16.2362 7.64616H15.8477V6.91482C15.8477 6.41199 15.4363 6.00066 14.9336 6.00066M11.2943 6.0007C10.7915 6.0007 10.3802 5.58933 10.3802 5.0865V4.35516H9.99167C9.39716 4.35516 8.90923 3.87595 8.89498 3.28472C8.87998 2.67244 9.37677 2.16112 9.99167 2.16112H10.3802V1.42978C10.3802 0.927 10.7915 0.515625 11.2943 0.515625H15.6367C16.1395 0.515625 16.5508 0.926953 16.5508 1.42978V2.16112H16.9393C17.5339 2.16112 18.0218 2.64037 18.036 3.23161C18.051 3.84384 17.5543 4.35516 16.9393 4.35516H16.5508V5.0865C16.5508 5.58933 16.1395 6.0007 15.6367 6.0007H14.5603C14.5255 6.56583 14.0628 7.01517 13.4922 7.02881C12.9009 7.0432 12.4068 6.5865 12.3707 6.0007H11.2943ZM6.76874 4.9405L5.91899 4.28884L5.38016 4.9915L4.38458 4.22804M5.71002 8.71431L4.64825 8.57485L4.53294 9.45277L3.28906 9.28937M6.90449 12.3397L5.91524 12.7497L6.25434 13.5677L5.0954 14.0482M20.7078 3.23161C20.1647 4.89928 19.8788 6.79101 19.8788 8.71668C19.8788 10.6424 20.1647 12.5341 20.7078 14.2018" stroke="#686FC8" stroke-width="1.2" stroke-miterlimit="2.6131" stroke-linecap="round" stroke-linejoin="round"/>
</g>
<defs>
<clipPath id="clip0_4036_41136">
<rect width="24" height="24" fill="white"/>
</clipPath>
</defs>
</svg>
