<svg width="24" height="24" viewBox="0 0 24 24" fill="none" xmlns="http://www.w3.org/2000/svg">
<g clip-path="url(#clip0_4032_37646)">
<path d="M1.75781 23.6022C1.75781 23.6022 4.12444 23.9018 5.22436 22.3272C6.3022 20.7842 6.27248 20.3079 7.02862 20.0084C7.54941 19.8021 7.99312 19.9762 7.99312 19.9762C7.99312 19.9762 10.0458 17.6251 12.0986 17.3852C12.0986 17.3852 11.8012 14.806 12.2715 13.1222" stroke="#686FC8" stroke-width="1.2" stroke-miterlimit="10" stroke-linecap="round" stroke-linejoin="round"/>
<path d="M18.2109 11.8896C19.1883 10.6101 20.2769 9.14601 20.6428 8.5086C21.0497 7.79971 20.9941 6.61063 20.8702 5.71588C21.4365 5.66263 21.9813 5.38748 22.3637 4.90518L23.1521 3.91077C23.898 2.96995 23.744 1.59941 22.8078 0.849602C21.8718 0.0998361 20.5082 0.254757 19.7622 1.19563L18.9738 2.19004C18.5878 2.67684 18.4428 3.27866 18.5224 3.85002" stroke="#686FC8" stroke-width="1.2" stroke-miterlimit="10" stroke-linecap="round" stroke-linejoin="round"/>
<path d="M9.8125 20.749C11.8036 20.0271 13.7845 19.2446 14.2288 18.8427C15.1836 17.979 16.4426 14.1708 16.4426 14.1708C16.4426 14.1708 16.821 13.6916 17.3539 13.0042" stroke="#686FC8" stroke-width="1.2" stroke-miterlimit="10" stroke-linecap="round" stroke-linejoin="round"/>
<path d="M5.22266 22.3271C5.22266 22.3271 6.71309 21.8418 8.48736 21.22" stroke="#686FC8" stroke-width="1.2" stroke-miterlimit="10" stroke-linecap="round" stroke-linejoin="round"/>
<path d="M0.375 19.2295C0.375 19.2295 2.74087 19.0891 3.62541 17.391C4.42059 15.8646 5.58028 15.8141 6.15506 16.0217L6.72984 16.2294C6.72984 16.2294 8.79956 14.7781 10.6387 15.2097C10.6387 15.2097 11.3024 14.7548 12.0695 14.2426" stroke="#686FC8" stroke-width="1.2" stroke-miterlimit="10" stroke-linecap="round" stroke-linejoin="round"/>
<path d="M12.0977 17.3853L3.625 17.3906" stroke="#686FC8" stroke-width="1.2" stroke-miterlimit="10" stroke-linecap="round" stroke-linejoin="round"/>
<path d="M19.1051 8.53119L12.4018 13.052C12.0841 13.2664 11.6574 13.2097 11.4059 12.9199C11.1339 12.6064 11.1616 12.1318 11.4681 11.8524L16.4589 7.30283" stroke="#686FC8" stroke-width="1.2" stroke-miterlimit="10" stroke-linecap="round" stroke-linejoin="round"/>
<path d="M23.4621 3.38273L22.3622 2.46121L21.168 3.93023L22.3647 4.90527L23.1531 3.91091C23.2837 3.7462 23.3861 3.56812 23.4621 3.38273Z" stroke="#686FC8" stroke-width="1.2" stroke-miterlimit="10" stroke-linecap="round" stroke-linejoin="round"/>
<path d="M21.7004 3.27637L19.4453 1.59777" stroke="#686FC8" stroke-width="1.2" stroke-miterlimit="10" stroke-linecap="round" stroke-linejoin="round"/>
<path d="M22.3661 4.90495L23.0339 5.45536C23.3619 5.72569 23.411 6.21155 23.1436 6.54262C22.8779 6.87169 22.3983 6.92503 22.0674 6.66225L17.625 3.135" stroke="#686FC8" stroke-width="1.2" stroke-miterlimit="10" stroke-linecap="round" stroke-linejoin="round"/>
<path d="M17.6247 3.13545L17.0859 3.82227" stroke="#686FC8" stroke-width="1.2" stroke-miterlimit="10" stroke-linecap="round" stroke-linejoin="round"/>
<path d="M13.328 6.0188L10.4199 9.786C9.86878 10.5001 9.99787 11.528 10.7083 12.082C10.8667 12.2055 11.0409 12.2949 11.2218 12.3516C11.2378 12.1663 11.32 11.9865 11.4676 11.8519L16.4584 7.30238L17.3727 6.11794C17.9238 5.40389 17.7948 4.37597 17.0843 3.822C16.3739 3.26798 15.3512 3.39778 14.8 4.11178L14.1877 4.90509" stroke="#686FC8" stroke-width="1.2" stroke-miterlimit="10" stroke-linecap="round" stroke-linejoin="round"/>
</g>
<defs>
<clipPath id="clip0_4032_37646">
<rect width="24" height="24" fill="white"/>
</clipPath>
</defs>
</svg>
