<svg width="24" height="25" viewBox="0 0 24 25" fill="none" xmlns="http://www.w3.org/2000/svg">
<g clip-path="url(#clip0_3975_27286)">
<path d="M2.625 15.8118H6.375" stroke="#686FC8" stroke-width="1.5" stroke-miterlimit="10" stroke-linecap="round" stroke-linejoin="round"/>
<path d="M4.5 23.3118V15.8118" stroke="#686FC8" stroke-width="1.5" stroke-miterlimit="10" stroke-linecap="round" stroke-linejoin="round"/>
<path d="M10.125 23.3118V17.6868C10.125 16.6513 10.9645 15.8118 12 15.8118C13.0355 15.8118 13.875 16.6513 13.875 17.6868V23.3118" stroke="#686FC8" stroke-width="1.5" stroke-miterlimit="10" stroke-linecap="round" stroke-linejoin="round"/>
<path d="M13.875 19.5618H10.125" stroke="#686FC8" stroke-width="1.5" stroke-miterlimit="10" stroke-linecap="round" stroke-linejoin="round"/>
<path d="M17.625 15.8118L21.375 23.3118" stroke="#686FC8" stroke-width="1.5" stroke-miterlimit="10" stroke-linecap="round" stroke-linejoin="round"/>
<path d="M17.625 23.3118L21.375 15.8118" stroke="#686FC8" stroke-width="1.5" stroke-miterlimit="10" stroke-linecap="round" stroke-linejoin="round"/>
<path d="M12 1.18677H17.625C18.6562 1.18677 19.5 2.03052 19.5 3.06177V12.4368" stroke="#686FC8" stroke-width="1.5" stroke-miterlimit="10" stroke-linecap="round" stroke-linejoin="round"/>
<path d="M4.5 12.4368V8.68677" stroke="#686FC8" stroke-width="1.5" stroke-miterlimit="10" stroke-linecap="round" stroke-linejoin="round"/>
<path d="M12 1.18677C10.9688 1.18677 10.125 2.03052 10.125 3.06177V4.93677C10.125 5.96802 9.28125 6.81177 8.25 6.81177H6.375C5.34375 6.81177 4.5 7.65552 4.5 8.68677V6.81177C4.5 3.69922 7.01255 1.18677 10.125 1.18677H12Z" stroke="#686FC8" stroke-width="1.5" stroke-miterlimit="10" stroke-linecap="round" stroke-linejoin="round"/>
<path d="M8.25 12.4368H15.75" stroke="#686FC8" stroke-width="1.5" stroke-miterlimit="10" stroke-linecap="round" stroke-linejoin="round"/>
<path d="M15.75 8.68677H12.9375" stroke="#686FC8" stroke-width="1.5" stroke-miterlimit="10" stroke-linecap="round" stroke-linejoin="round"/>
</g>
<defs>
<clipPath id="clip0_3975_27286">
<rect width="24" height="24" fill="white" transform="translate(0 0.249268)"/>
</clipPath>
</defs>
</svg>
