<svg width="24" height="24" viewBox="0 0 24 24" fill="none" xmlns="http://www.w3.org/2000/svg">
<path d="M23.2969 2.10928V21.8906H0.703125V2.10928" stroke="#686FC8" stroke-width="1.4" stroke-miterlimit="22.926" stroke-linecap="round" stroke-linejoin="round"/>
<path d="M0.703125 4.96875C1.64452 4.65628 2.53542 3.5625 3.52734 3.5625C4.51927 3.5625 5.35964 4.96875 6.35156 4.96875C7.34348 4.96875 8.18386 3.5625 9.17578 3.5625C10.1677 3.5625 11.0081 4.96875 12 4.96875C12.9919 4.96875 13.8323 3.5625 14.8242 3.5625C15.8161 3.5625 16.6565 4.96875 17.6484 4.96875C18.6404 4.96875 19.4807 3.5625 20.4727 3.5625C21.4646 3.5625 22.3555 4.65628 23.2969 4.96875" stroke="#686FC8" stroke-width="1.4" stroke-miterlimit="22.926" stroke-linecap="round" stroke-linejoin="round"/>
<path d="M12 19.4062V7.82813" stroke="#686FC8" stroke-width="1.4" stroke-miterlimit="22.926" stroke-linecap="round" stroke-linejoin="round"/>
<path d="M12 7.82813L10.2891 9.53906" stroke="#686FC8" stroke-width="1.4" stroke-miterlimit="22.926" stroke-linecap="round" stroke-linejoin="round"/>
<path d="M12.0234 7.82813L13.7344 9.53906" stroke="#686FC8" stroke-width="1.4" stroke-miterlimit="22.926" stroke-linecap="round" stroke-linejoin="round"/>
<path d="M12 19.4062L10.2891 17.6953" stroke="#686FC8" stroke-width="1.4" stroke-miterlimit="22.926" stroke-linecap="round" stroke-linejoin="round"/>
<path d="M12.0234 19.4062L13.7344 17.6953" stroke="#686FC8" stroke-width="1.4" stroke-miterlimit="22.926" stroke-linecap="round" stroke-linejoin="round"/>
</svg>
