<svg width="24" height="25" viewBox="0 0 24 25" fill="none" xmlns="http://www.w3.org/2000/svg">
<g clip-path="url(#clip0_5560_57542)">
<mask id="mask0_5560_57542" style="mask-type:luminance" maskUnits="userSpaceOnUse" x="-1" y="0" width="25" height="25">
<path d="M-0.00341797 0.249025H23.9966V24.249H-0.00341797V0.249025Z" fill="white"/>
</mask>
<g mask="url(#mask0_5560_57542)">
<path d="M7.8248 12.2959V0.952149H0.795898L2.1998 12.2959H5.0123" stroke="#686FC8" stroke-width="1.5" stroke-miterlimit="10" stroke-linecap="square"/>
<path d="M17.668 23.5459V18.7421C20.151 17.6571 21.8863 15.1795 21.8867 12.2959H5.01172C5.01172 13.4447 5.2872 14.5292 5.77578 15.4868C6.51336 16.9326 7.73661 18.0894 9.23047 18.7421V23.5459" stroke="#686FC8" stroke-width="1.5" stroke-miterlimit="10" stroke-linecap="square"/>
<path d="M10.6367 12.2959V10.8896C10.6367 10.113 11.2663 9.4834 12.043 9.4834H21.8867C22.6633 9.4834 23.293 10.113 23.293 10.8896C23.293 11.6663 22.6633 12.2959 21.8867 12.2959" stroke="#686FC8" stroke-width="1.5" stroke-miterlimit="10" stroke-linecap="square"/>
<path d="M5.01172 3.8584V5.26465" stroke="#686FC8" stroke-width="1.40625" stroke-miterlimit="10" stroke-linecap="square"/>
<path d="M6.41797 23.5459H20.4805" stroke="#686FC8" stroke-width="1.40625" stroke-miterlimit="10" stroke-linecap="square"/>
</g>
</g>
<defs>
<clipPath id="clip0_5560_57542">
<rect width="24" height="24" fill="white" transform="translate(0 0.249023)"/>
</clipPath>
</defs>
</svg>
