<svg width="20" height="15" viewBox="0 0 20 15" fill="none" xmlns="http://www.w3.org/2000/svg">
<rect width="20" height="15" fill="#F4F4F4"/>
<path d="M7.53906 10.262L8.44437 5.16968H9.85891L8.98189 10.262H7.53906Z" fill="#3C58BF"/>
<path d="M7.53906 10.262L8.69898 5.16968H9.85891L8.98189 10.262H7.53906Z" fill="#293688"/>
<path d="M14.1019 5.22633C13.819 5.11316 13.3664 5 12.8006 5C11.386 5 10.3675 5.70727 10.3675 6.72574C10.3675 7.48959 11.0748 7.88566 11.6406 8.14028C12.2064 8.39489 12.3762 8.56464 12.3762 8.79096C12.3762 9.13045 11.9235 9.3002 11.5275 9.3002C10.9617 9.3002 10.6505 9.21533 10.1695 9.01729L9.97147 8.93242L9.77344 10.0923C10.1129 10.2338 10.7353 10.3752 11.386 10.3752C12.8854 10.3752 13.8756 9.66798 13.8756 8.59293C13.8756 7.99882 13.5078 7.54617 12.6591 7.17839C12.1499 6.92377 11.8387 6.78232 11.8387 6.5277C11.8387 6.30138 12.0933 6.07505 12.6591 6.07505C13.14 6.07505 13.4795 6.15992 13.7341 6.27309L13.8756 6.32967L14.1019 5.22633Z" fill="#3C58BF"/>
<path d="M14.1019 5.22633C13.819 5.11316 13.3664 5 12.8006 5C11.386 5 10.6222 5.70727 10.6222 6.72574C10.6222 7.48959 11.0748 7.88566 11.6406 8.14028C12.2064 8.39489 12.3762 8.56464 12.3762 8.79096C12.3762 9.13045 11.9235 9.3002 11.5275 9.3002C10.9617 9.3002 10.6505 9.21533 10.1695 9.01729L9.97147 8.93242L9.77344 10.0923C10.1129 10.2338 10.7353 10.3752 11.386 10.3752C12.8854 10.3752 13.8756 9.66798 13.8756 8.59293C13.8756 7.99882 13.5078 7.54617 12.6591 7.17839C12.1499 6.92377 11.8387 6.78232 11.8387 6.5277C11.8387 6.30138 12.0933 6.07505 12.6591 6.07505C13.14 6.07505 13.4795 6.15992 13.7341 6.27309L13.8756 6.32967L14.1019 5.22633Z" fill="#293688"/>
<path d="M16.5332 5.16968C16.1937 5.16968 15.939 5.19797 15.7976 5.53746L13.6758 10.262H15.2035L15.4864 9.4133H17.297L17.4667 10.262H18.8247L17.6365 5.16968H16.5332ZM15.8825 8.56457C15.9673 8.30996 16.4483 7.06516 16.4483 7.06516C16.4483 7.06516 16.5614 6.75396 16.6463 6.55593L16.7312 7.03687C16.7312 7.03687 17.0141 8.30996 17.0707 8.59286H15.8825V8.56457Z" fill="#3C58BF"/>
<path d="M16.8726 5.16968C16.5332 5.16968 16.2785 5.19797 16.1371 5.53746L13.6758 10.262H15.2035L15.4864 9.4133H17.297L17.4667 10.262H18.8247L17.6365 5.16968H16.8726ZM15.8825 8.56457C15.9956 8.28166 16.4483 7.06516 16.4483 7.06516C16.4483 7.06516 16.5614 6.75396 16.6463 6.55593L16.7312 7.03687C16.7312 7.03687 17.0141 8.30996 17.0707 8.59286H15.8825V8.56457Z" fill="#293688"/>
<path d="M4.93431 8.73435L4.79286 7.99879C4.53824 7.15006 3.71781 6.21647 2.8125 5.76381L4.08559 10.2903H5.61329L7.90484 5.198H6.37714L4.93431 8.73435Z" fill="#3C58BF"/>
<path d="M4.93431 8.73435L4.79286 7.99879C4.53824 7.15006 3.71781 6.21647 2.8125 5.76381L4.08559 10.2903H5.61329L7.90484 5.198H6.66005L4.93431 8.73435Z" fill="#293688"/>
<path d="M1 5.16968L1.25462 5.22626C3.06523 5.65062 4.31002 6.72567 4.79097 7.99876L4.28173 5.59404C4.19686 5.25455 3.94224 5.16968 3.63104 5.16968H1Z" fill="#FFBC00"/>
<path d="M1 5.16968C2.81061 5.59404 4.31002 6.69738 4.79097 7.97047L4.31002 5.96182C4.22515 5.62233 3.94224 5.4243 3.63104 5.4243L1 5.16968Z" fill="#F7981D"/>
<path d="M1 5.16968C2.81061 5.59404 4.31002 6.69738 4.79097 7.97047L4.45148 6.86713C4.3666 6.52764 4.25344 6.18815 3.85737 6.04669L1 5.16968Z" fill="#ED7C00"/>
<path d="M6.3479 8.56467L5.38601 7.60279L4.93336 8.67784L4.8202 7.97057C4.56558 7.12184 3.74515 6.18825 2.83984 5.7356L4.11293 10.2621H5.64063L6.3479 8.56467Z" fill="#051244"/>
<path d="M8.98189 10.262L7.76539 9.01721L7.53906 10.262H8.98189Z" fill="#051244"/>
<path d="M12.2347 8.50793C12.3479 8.6211 12.4045 8.70597 12.3762 8.81913C12.3762 9.15862 11.9235 9.32837 11.5275 9.32837C10.9617 9.32837 10.6505 9.2435 10.1695 9.04546L9.97147 8.96059L9.77344 10.1205C10.1129 10.262 10.7353 10.4034 11.386 10.4034C12.2913 10.4034 13.0269 10.1488 13.4512 9.69615L12.2347 8.50793Z" fill="#051244"/>
<path d="M13.875 10.2621H15.2047L15.4876 9.4134H17.2982L17.4679 10.2621H18.8259L18.3449 8.1969L16.6475 6.55603L16.7324 7.00868C16.7324 7.00868 17.0153 8.28177 17.0719 8.56468H15.8836C15.9968 8.28177 16.4495 7.06526 16.4495 7.06526C16.4495 7.06526 16.5626 6.75407 16.6475 6.55603" fill="#051244"/>
</svg>
