<svg width="24" height="24" viewBox="0 0 24 24" fill="none" xmlns="http://www.w3.org/2000/svg">
<path d="M12.3434 14.0977L12.4148 14.0941C12.5789 14.0769 12.7322 14.0004 12.8455 13.8783C13.1262 13.5757 20.2659 5.8808 20.5515 5.57301C20.8087 5.29586 20.7928 4.86281 20.5159 4.60552C20.2386 4.34825 19.8047 4.36395 19.5475 4.64119C19.2863 4.92264 13.2581 11.4203 12.0447 12.728H9.94654C9.56833 12.728 9.26172 13.0346 9.26172 13.4128C9.26172 13.791 9.56833 14.0977 9.94654 14.0977H12.3434Z" fill="#686FC8"/>
<path d="M9.61721 11.3034C9.868 11.5863 10.3008 11.6128 10.5838 11.3623L18.6769 4.18767C18.9598 3.93679 18.9865 3.50408 18.7357 3.22107C18.4848 2.93804 18.0513 2.91222 17.7682 3.16311L9.67607 10.3368C9.39316 10.5876 9.36666 11.0204 9.61721 11.3034Z" fill="#686FC8"/>
<path d="M17.4786 19.5759C17.4786 20.7077 16.5616 21.6303 15.4241 21.6304H4.46693C3.31841 21.6304 2.36965 20.6968 2.36965 19.5759C2.36965 18.4482 3.32532 17.5214 4.46693 17.5214H15.4241C16.5588 17.5214 17.4786 18.4412 17.4786 19.5759ZM18.8482 19.5759C18.8482 17.6847 17.3152 16.1518 15.4241 16.1518H4.46693C2.60318 16.1518 1 17.6579 1 19.5759C1 21.4807 2.58971 23 4.46693 23H15.4241C17.3208 23 18.8482 21.4614 18.8482 19.5759Z" fill="#686FC8"/>
<path d="M15.4232 17.5215L15.5079 17.5161C15.7023 17.4919 15.8789 17.3854 15.9903 17.221C16.1177 17.0329 16.1433 16.7935 16.059 16.5825L15.2047 14.4469C14.7895 13.4088 13.7841 12.7277 12.6661 12.7277H5.83566C5.55563 12.7277 5.30388 12.8984 5.19988 13.1584L3.83023 16.5825C3.74591 16.7935 3.77152 17.0329 3.89889 17.221C4.02631 17.409 4.23887 17.5215 4.46601 17.5215H15.4232ZM6.29934 14.0974H12.6661C13.2241 14.0974 13.7259 14.4371 13.9332 14.9552L14.412 16.1518H5.4772L6.29934 14.0974Z" fill="#686FC8"/>
<path d="M11.3158 14.0977C11.5493 14.0977 11.7668 13.9787 11.8927 13.782C12.0186 13.5853 12.0351 13.3378 11.9373 13.1257L9.88281 8.67434C9.77082 8.43194 9.52833 8.27665 9.26129 8.27664H5.83717C5.45895 8.27664 5.15234 8.58325 5.15234 8.96147V13.4128C5.15234 13.791 5.45895 14.0977 5.83717 14.0977H11.3158ZM6.52199 9.64629H8.82347L10.2457 12.728H6.52199V9.64629Z" fill="#686FC8"/>
<path d="M20.9472 3.3982C20.9472 3.9663 20.4863 4.42712 19.9182 4.42723C19.35 4.42723 18.8892 3.96636 18.8892 3.3982C18.8893 2.83016 19.3501 2.37008 19.9182 2.37008C20.4862 2.37018 20.9471 2.83022 20.9472 3.3982ZM22.3169 3.3982C22.3167 2.07378 21.2426 1.00053 19.9182 1.00043C18.5936 1.00043 17.5197 2.0737 17.5195 3.3982C17.5195 4.72282 18.5936 5.79688 19.9182 5.79688C21.2427 5.79677 22.3169 4.72274 22.3169 3.3982Z" fill="#686FC8"/>
<path d="M21.6297 13.0277C21.6297 13.9732 20.8632 14.7397 19.9176 14.7397C18.9721 14.7397 18.2056 13.9732 18.2056 13.0277C18.2056 12.0821 18.9721 11.3156 19.9176 11.3156C20.8632 11.3156 21.6297 12.0821 21.6297 13.0277ZM22.9994 13.0277C22.9994 11.3257 21.6196 9.94595 19.9176 9.94595C18.2157 9.94595 16.8359 11.3257 16.8359 13.0277C16.8359 14.7296 18.2157 16.1094 19.9176 16.1094C21.6196 16.1094 22.9994 14.7296 22.9994 13.0277Z" fill="#686FC8"/>
<path d="M19.2344 5.11188V10.6306C19.2344 11.0088 19.541 11.3154 19.9192 11.3154C20.2974 11.3154 20.604 11.0088 20.604 10.6306V5.11188C20.6039 4.73381 20.2973 4.42705 19.9192 4.42705C19.5411 4.42705 19.2345 4.73381 19.2344 5.11188Z" fill="#686FC8"/>
</svg>
